<?xml version="1.0" encoding="UTF-8"?>
<svg id="Layer_1" data-name="Layer 1" xmlns="http://www.w3.org/2000/svg" viewBox="0 0 248.82 259.21">
  <defs>
    <style>
      .cls-1 {
        stroke: #fff;
        stroke-width: 5px;
      }

      .cls-1, .cls-2, .cls-3 {
        fill: none;
        stroke-miterlimit: 10;
      }

      .cls-4 {
        fill: #231f20;
      }

      .cls-2 {
        stroke: #faa41a;
      }

      .cls-2, .cls-3 {
        stroke-width: 30px;
      }

      .cls-5 {
        fill: #ffe9cc;
      }

      .cls-6 {
        fill: #fff;
      }

      .cls-3 {
        stroke: #ec7e1e;
      }

      .cls-7 {
        fill: #fce0c7;
      }
    </style>
  </defs>
  <g>
    <path class="cls-5" d="M17.66,121.44l17.04-45.45,23.13-41.8,36.53-10.96,40.18-4.46s33.28,12.99,34.9,14c1.62,1.01,17.45,20.9,17.45,20.9,0,0,24.75,21.51,25.57,23.94.81,2.43,15.83,36.93,15.83,36.93l3.25,7.3-213.87-.41Z"/>
    <path class="cls-7" d="M236.2,137.67l-17.05,45.45-23.13,41.8-36.52,10.96-40.18,4.46s-33.28-12.99-34.9-14c-1.62-1.02-17.45-20.9-17.45-20.9,0,0-24.75-21.51-25.57-23.94-.81-2.43-15.83-36.93-15.83-36.93l-3.25-7.3,213.87.41Z"/>
    <path class="cls-2" d="M18.52,121.69c0-58.92,47.77-106.69,106.69-106.69s106.69,47.77,106.69,106.69"/>
  </g>
  <path class="cls-6" d="M112.91,13.92l-1.78.25c-.11-.69-.5-1.51-1.27-1.4-.76.11-1.17.81-.81,3.41.39,2.78.92,3.53,1.78,3.41.45-.06,1.08-.62.94-1.64l-.13-.93-1.22.17-.19-1.37,3-.42.69,4.96-1.37.19-.12-.85h-.03c-.33.8-.94,1.18-1.79,1.3-2.11.3-2.92-1-3.41-4.48-.41-2.94-.04-4.77,2.43-5.12,1.96-.27,2.99.55,3.27,2.51Z"/>
  <path class="cls-6" d="M117.86,12.87l.15,1.71c-.14,0-.34,0-.53.02-.83.07-1.3.6-1.24,1.35l.37,4.21-1.79.16-.62-6.97,1.71-.15.08.93h.03c.33-.78.83-1.2,1.51-1.26.1,0,.22,0,.33,0Z"/>
  <path class="cls-6" d="M123.57,18.98c-.45.78-1.25,1.04-2.18,1.07-1.71.06-2.74-.57-2.86-3.57-.05-1.46.2-2.41.68-2.99.45-.54,1.1-.76,1.95-.79,1.9-.07,2.78.78,2.88,3.56.05,1.27-.14,2.15-.47,2.72ZM121.19,13.92c-.47.02-.69.3-.8.77-.1.45-.09,1.04-.06,1.72.06,1.52.21,2.45,1.05,2.42.71-.03.94-.71.87-2.49-.07-1.79-.34-2.45-1.05-2.42Z"/>
  <path class="cls-6" d="M126.33,12.77l.63,4.99h.03s1.06-4.93,1.06-4.93l1.95.07.73,5h.03s1.03-4.93,1.03-4.93l1.71.07-1.77,6.93-2.04-.08-.73-5h-.03s-1.05,4.93-1.05,4.93l-2.09-.08-1.25-7.05,1.79.07Z"/>
  <path class="cls-6" d="M136.64,11.38l-.18,1.99,1.04.09-.11,1.22-1.04-.09-.34,3.82c-.04.5.05.72.58.77.21.02.27.01.39,0l-.11,1.24c-.76.01-.91,0-1.17-.03-1.33-.12-1.62-.51-1.5-1.91l.36-4.07-.91-.08.11-1.22.91.08.18-2,1.79.16Z"/>
  <path class="cls-6" d="M140.33,11.54l-.42,2.97h.03c.42-.53,1.01-.76,1.81-.65,1.57.22,1.6,1.42,1.5,2.17l-.73,5.19-1.78-.25.67-4.82c.09-.62-.08-.96-.63-1.03-.64-.09-1,.27-1.1.98l-.65,4.63-1.78-.25,1.29-9.19,1.78.25Z"/>
  <path class="cls-3" d="M231.9,137.53c0,58.92-47.77,106.69-106.69,106.69S18.52,196.45,18.52,137.53"/>
  <path class="cls-6" d="M113.58,239.06l.52,6.97h.04s2.15-6.66,2.15-6.66l1.92.22-3.17,8.98-2.39-.27-1.06-9.46,1.99.23Z"/>
  <path class="cls-6" d="M123.11,243.9l-.15,3.85c-.02.55.02.85.17,1.26l-1.72-.06c-.05-.05-.14-.47-.19-.74h-.03c-.41.63-.83.88-1.8.84-1.42-.05-1.65-1.35-1.62-2.08.05-1.25.52-1.8,1.95-2.12l.83-.19c.59-.13.82-.32.84-.81.02-.58-.24-.87-.8-.89-.51-.02-.84.27-.87.89v.18s-1.62-.06-1.62-.06v-.13c.06-1.48.93-2.16,2.54-2.1,1.77.07,2.51.67,2.45,2.17ZM120.13,247.84c.55.02,1.12-.32,1.15-1.01l.05-1.43c-.2.14-.29.2-.62.3l-.4.13c-.57.19-.8.45-.82,1.01-.02.62.21.98.64,1Z"/>
  <path class="cls-6" d="M126.17,239.71l.12,9.28-1.79.02-.12-9.28,1.79-.02Z"/>
  <path class="cls-6" d="M129.2,241.93l.18,4.85c.03.66.26.94.8.92.64-.02.93-.44.91-1.14l-.18-4.69,1.79-.07.27,6.99-1.71.07-.03-.82h-.03c-.34.66-.92,1.04-1.74,1.07-1.21.05-1.81-.62-1.86-1.93l-.2-5.17,1.79-.07Z"/>
  <path class="cls-6" d="M139.17,244.48l.05.4-3.53.4.06.5c.08.7.33,1.65,1.07,1.57.72-.08.78-.69.79-1.41l1.6-.18c.06.78-.09,1.42-.41,1.91-.34.5-.9.8-1.82.9-1.08.12-1.73-.13-2.17-.6-.61-.64-.81-1.67-.94-2.8-.1-.9-.12-1.88.2-2.57.34-.72.96-1.21,2.15-1.35,1.93-.22,2.67.85,2.95,3.24ZM137.39,244.02c-.15-1.34-.54-1.61-1.09-1.55-.8.09-.81,1.02-.76,1.49l.03.27,1.82-.21Z"/>
  <polygon class="cls-6" points="18.54 103.41 37.08 121.95 0 121.95 18.54 103.41"/>
  <path class="cls-1" d="M34.23,128.33c0-53.29,40.54-96.5,90.56-96.5s90.56,43.21,90.56,96.5"/>
  <g>
    <path class="cls-4" d="M211.08,124.69l.42,7.25h-1.52l-.02-1.53h-1.93l-.65,1.53h-1.52l3.42-7.25h1.81ZM209.91,125.94l-1.38,3.26h1.42l-.02-3.26h-.02Z"/>
    <path class="cls-4" d="M214.92,124.69l-1.5,7.25h-1.4l1.5-7.25h1.4Z"/>
    <path class="cls-4" d="M217.56,124.91l-.32,1.56h.81l-.19.95h-.81c-.63,3.02-.65,3.01-.65,3.24s.08.31.41.31c.12,0,.15,0,.31-.02l-.19.97c-.56.06-.81.06-.93.06-.73,0-1.1-.14-1.1-.72,0-.14.03-.35.1-.71l.65-3.14h-.71l.19-.95h.71l.32-1.56h1.4Z"/>
    <path class="cls-4" d="M222.11,127.87c0,.48-.11,1.09-.22,1.54h-2.77c-.1.46-.15.74-.15.99,0,.49.17.71.49.71.46,0,.73-.33.95-1.02h1.26c-.31,1.31-1.11,1.98-2.39,1.98-1.16,0-1.68-.51-1.68-1.54,0-.48.1-1.11.3-1.9.42-1.58,1.24-2.3,2.64-2.3,1.08,0,1.58.47,1.58,1.54ZM220.72,128.58c.04-.29.07-.53.07-.71,0-.42-.15-.59-.52-.59-.51,0-.85.49-.98,1.3h1.43Z"/>
    <path class="cls-4" d="M226.13,126.35l-.28,1.34c-.14,0-.29-.02-.41-.02-.66,0-1.14.4-1.26.98l-.68,3.28h-1.4l1.13-5.46h1.34l-.15.73h.02c.44-.59.91-.87,1.44-.87.08,0,.17.01.25.02Z"/>
    <path class="cls-4" d="M230.51,127.34c0,.15,0,.3-.08.64l-.81,3.95h-1.4l.76-3.66c.04-.17.06-.32.06-.43,0-.29-.15-.44-.49-.44-.48,0-.79.25-.93.95l-.74,3.57h-1.4l1.13-5.46h1.34l-.13.64h.02c.36-.48.88-.78,1.55-.78.73,0,1.13.32,1.13,1.01Z"/>
    <path class="cls-4" d="M235.32,127.41c0,.1-.02.33-.07.6l-.6,2.87c-.04.21-.09.45-.09.67,0,.14,0,.21.05.38h-1.34c-.04-.09-.06-.23-.06-.33v-.23h-.02c-.4.51-.82.71-1.53.71s-1.04-.45-1.04-1.11c0-.31.09-.78.29-1.17.2-.41.57-.67.99-.83.46-.17.9-.26,1.36-.39.28-.08.47-.17.57-.37.07-.13.12-.32.12-.5,0-.29-.19-.44-.54-.44-.42,0-.75.24-.83.86h-1.26c.23-1.21.99-1.82,2.29-1.82,1.18,0,1.7.34,1.7,1.09ZM232.41,131.12c.5,0,.91-.31,1.01-.8l.23-1.16c-.23.18-.62.3-.93.41-.55.18-.72.65-.72,1.09,0,.29.13.47.41.47Z"/>
    <path class="cls-4" d="M238.59,124.91l-.32,1.56h.81l-.19.95h-.81c-.63,3.02-.65,3.01-.65,3.24s.08.31.41.31c.12,0,.15,0,.31-.02l-.19.97c-.56.06-.81.06-.93.06-.73,0-1.1-.14-1.1-.72,0-.14.03-.35.1-.71l.65-3.14h-.71l.19-.95h.71l.32-1.56h1.4Z"/>
    <path class="cls-4" d="M243.14,127.87c0,.48-.11,1.09-.22,1.54h-2.77c-.1.46-.15.74-.15.99,0,.49.17.71.49.71.46,0,.73-.33.95-1.02h1.26c-.31,1.31-1.11,1.98-2.39,1.98-1.16,0-1.68-.51-1.68-1.54,0-.48.1-1.11.3-1.9.42-1.58,1.24-2.3,2.64-2.3,1.08,0,1.58.47,1.58,1.54ZM241.75,128.58c.04-.29.07-.53.07-.71,0-.42-.15-.59-.52-.59-.51,0-.85.49-.98,1.3h1.43Z"/>
    <path class="cls-4" d="M247.69,127.5c0,.13-.01.26-.08.61h-1.26c.03-.15.04-.26.04-.37,0-.31-.15-.46-.5-.46-.49,0-.79.36-.79.74,0,.2.15.36.47.48l.81.29c.67.24.93.58.93,1.1,0,1.15-.8,2.18-2.46,2.18-1.14,0-1.69-.35-1.69-1.19,0-.16.02-.37.1-.74h1.26c-.04.18-.06.27-.06.41,0,.37.19.57.6.57.62,0,.85-.46.85-.81,0-.21-.14-.35-.41-.46-.26-.1-.55-.22-.9-.35-.6-.23-.88-.58-.88-1.14,0-.32.08-.66.26-.98.37-.64,1.08-1.04,2.11-1.04s1.59.39,1.59,1.17Z"/>
  </g>
  <g>
    <path class="cls-4" d="M10.11,124.69l.42,7.25h-1.52l-.02-1.53h-1.93l-.65,1.53h-1.52l3.42-7.25h1.81ZM8.94,125.94l-1.38,3.26h1.42l-.02-3.26h-.02Z"/>
    <path class="cls-4" d="M13.95,124.69l-1.5,7.25h-1.4l1.5-7.25h1.4Z"/>
    <path class="cls-4" d="M16.59,124.91l-.32,1.56h.81l-.19.95h-.81c-.63,3.02-.65,3.01-.65,3.24s.08.31.41.31c.12,0,.15,0,.31-.02l-.19.97c-.56.06-.81.06-.93.06-.73,0-1.1-.14-1.1-.72,0-.14.03-.35.1-.71l.65-3.14h-.71l.19-.95h.71l.32-1.56h1.4Z"/>
    <path class="cls-4" d="M21.14,127.87c0,.48-.11,1.09-.22,1.54h-2.77c-.1.46-.15.74-.15.99,0,.49.17.71.49.71.46,0,.73-.33.95-1.02h1.26c-.31,1.31-1.11,1.98-2.39,1.98-1.16,0-1.68-.51-1.68-1.54,0-.48.1-1.11.3-1.9.42-1.58,1.24-2.3,2.64-2.3,1.08,0,1.58.47,1.58,1.54ZM19.75,128.58c.04-.29.07-.53.07-.71,0-.42-.15-.59-.52-.59-.51,0-.85.49-.98,1.3h1.43Z"/>
    <path class="cls-4" d="M25.16,126.35l-.28,1.34c-.14,0-.29-.02-.41-.02-.66,0-1.14.4-1.26.98l-.68,3.28h-1.4l1.13-5.46h1.34l-.15.73h.02c.44-.59.91-.87,1.44-.87.08,0,.17.01.25.02Z"/>
    <path class="cls-4" d="M29.54,127.34c0,.15,0,.3-.08.64l-.81,3.95h-1.4l.76-3.66c.04-.17.06-.32.06-.43,0-.29-.15-.44-.49-.44-.48,0-.79.25-.93.95l-.74,3.57h-1.4l1.13-5.46h1.34l-.13.64h.02c.36-.48.88-.78,1.55-.78.73,0,1.13.32,1.13,1.01Z"/>
    <path class="cls-4" d="M34.35,127.41c0,.1-.02.33-.07.6l-.6,2.87c-.04.21-.09.45-.09.67,0,.14,0,.21.05.38h-1.34c-.04-.09-.06-.23-.06-.33v-.23h-.02c-.4.51-.82.71-1.53.71s-1.04-.45-1.04-1.11c0-.31.09-.78.29-1.17.2-.41.57-.67.99-.83.46-.17.9-.26,1.36-.39.28-.08.47-.17.57-.37.07-.13.12-.32.12-.5,0-.29-.19-.44-.54-.44-.42,0-.75.24-.83.86h-1.26c.23-1.21.99-1.82,2.29-1.82,1.18,0,1.7.34,1.7,1.09ZM31.44,131.12c.5,0,.91-.31,1.01-.8l.23-1.16c-.23.18-.62.3-.93.41-.55.18-.72.65-.72,1.09,0,.29.13.47.41.47Z"/>
    <path class="cls-4" d="M37.62,124.91l-.32,1.56h.81l-.19.95h-.81c-.63,3.02-.65,3.01-.65,3.24s.08.31.41.31c.12,0,.15,0,.31-.02l-.19.97c-.56.06-.81.06-.93.06-.73,0-1.1-.14-1.1-.72,0-.14.03-.35.1-.71l.65-3.14h-.71l.19-.95h.71l.32-1.56h1.4Z"/>
    <path class="cls-4" d="M42.17,127.87c0,.48-.11,1.09-.22,1.54h-2.77c-.1.46-.15.74-.15.99,0,.49.17.71.49.71.46,0,.73-.33.95-1.02h1.26c-.31,1.31-1.11,1.98-2.39,1.98-1.16,0-1.68-.51-1.68-1.54,0-.48.1-1.11.3-1.9.42-1.58,1.24-2.3,2.64-2.3,1.08,0,1.58.47,1.58,1.54ZM40.78,128.58c.04-.29.07-.53.07-.71,0-.42-.15-.59-.52-.59-.51,0-.85.49-.98,1.3h1.43Z"/>
    <path class="cls-4" d="M46.72,127.5c0,.13-.01.26-.08.61h-1.26c.03-.15.04-.26.04-.37,0-.31-.15-.46-.5-.46-.49,0-.79.36-.79.74,0,.2.15.36.47.48l.81.29c.67.24.93.58.93,1.1,0,1.15-.8,2.18-2.46,2.18-1.14,0-1.69-.35-1.69-1.19,0-.16.02-.37.1-.74h1.26c-.04.18-.06.27-.06.41,0,.37.19.57.6.57.62,0,.85-.46.85-.81,0-.21-.14-.35-.41-.46-.26-.1-.55-.22-.9-.35-.6-.23-.88-.58-.88-1.14,0-.32.08-.66.26-.98.37-.64,1.08-1.04,2.11-1.04s1.59.39,1.59,1.17Z"/>
  </g>
  <path class="cls-1" d="M214.63,132.65c0,53.3-40.54,96.5-90.56,96.5s-90.56-43.2-90.56-96.5"/>
  <polygon class="cls-6" points="230.27 155.43 211.73 136.89 248.82 136.89 230.27 155.43"/>
  <g>
    <path class="cls-4" d="M67.44,167.67v.13h-.91v-.08c0-.76-.27-1.13-.81-1.13-.71,0-.98.46-.98,2.25s.3,2.3.98,2.3c.57,0,.85-.46.85-1.35v-.12h.91v.09c0,1.35-.64,2.07-1.76,2.07-1.37,0-1.89-.81-1.89-2.97s.5-2.97,1.9-2.97c1.26,0,1.72.71,1.72,1.77Z"/>
    <path class="cls-4" d="M71.15,169.56c0,1.13-.28,2.27-1.61,2.27s-1.6-1.15-1.6-2.27.24-2.25,1.6-2.25c1.29,0,1.61.98,1.61,2.25ZM69.54,171.2c.64,0,.74-.54.74-1.62s-.14-1.63-.75-1.63-.73.73-.73,1.62c0,1.08.11,1.62.74,1.62Z"/>
    <path class="cls-4" d="M74.78,168.48v3.25h-.86v-2.96c0-.55-.14-.77-.59-.77-.42,0-.7.33-.7.83v2.89h-.86v-4.3h.82v.5h.02c.21-.38.62-.62,1.1-.62.73,0,1.07.37,1.07,1.17Z"/>
    <path class="cls-4" d="M78.23,168.49v.18h-.82v-.1c0-.23-.04-.68-.57-.68-.39,0-.62.19-.62.56s.18.48.61.63l.58.2c.62.22.91.55.91,1.23,0,.87-.62,1.31-1.54,1.31-1.02,0-1.42-.43-1.42-1.34v-.16h.77v.12c0,.54.18.78.67.78s.7-.25.7-.63c0-.31-.17-.53-.47-.63l-.75-.26c-.62-.22-.87-.56-.87-1.22,0-.8.55-1.19,1.47-1.19s1.34.43,1.34,1.18Z"/>
    <path class="cls-4" d="M79.81,165.95v.86h-.86v-.86h.86ZM79.81,167.42v4.3h-.86v-4.3h.86Z"/>
    <path class="cls-4" d="M83.3,168.49v.18h-.82v-.1c0-.23-.04-.68-.57-.68-.39,0-.62.19-.62.56s.18.48.61.63l.58.2c.62.22.91.55.91,1.23,0,.87-.62,1.31-1.54,1.31-1.02,0-1.42-.43-1.42-1.34v-.16h.77v.12c0,.54.18.78.67.78s.7-.25.7-.63c0-.31-.17-.53-.47-.63l-.75-.26c-.62-.22-.87-.56-.87-1.22,0-.8.55-1.19,1.47-1.19s1.34.43,1.34,1.18Z"/>
    <path class="cls-4" d="M85.11,166.2v1.22h.7v.64h-.7v2.57c0,.32.09.45.39.45.13,0,.23,0,.31-.02v.64c-.19.05-.42.07-.69.07-.52,0-.88-.11-.88-1.02v-2.69h-.59v-.64h.59v-1.22h.86Z"/>
    <path class="cls-4" d="M88.99,168.49v.18h-.82v-.1c0-.23-.04-.68-.57-.68-.39,0-.62.19-.62.56s.18.48.61.63l.58.2c.62.22.91.55.91,1.23,0,.87-.62,1.31-1.54,1.31-1.02,0-1.42-.43-1.42-1.34v-.16h.77v.12c0,.54.18.78.67.78s.7-.25.7-.63c0-.31-.17-.53-.47-.63l-.75-.26c-.62-.22-.87-.56-.87-1.22,0-.8.55-1.19,1.47-1.19s1.34.43,1.34,1.18Z"/>
    <path class="cls-4" d="M94.38,169.56c0,1.13-.28,2.27-1.61,2.27s-1.6-1.15-1.6-2.27.24-2.25,1.6-2.25c1.29,0,1.61.98,1.61,2.25ZM92.77,171.2c.64,0,.74-.54.74-1.62s-.14-1.63-.75-1.63-.73.73-.73,1.62c0,1.08.11,1.62.74,1.62Z"/>
    <path class="cls-4" d="M96.82,165.97v.66h-.24c-.34,0-.46.14-.46.41v.38h.7v.64h-.7v3.66h-.86v-3.66h-.6v-.64h.6v-.41c0-.78.37-1.06,1.1-1.06.2,0,.34,0,.47.02Z"/>
    <path class="cls-4" d="M100.97,166.06v5.66h-.91v-4.11h-1.18v-.59h.12c.99,0,1.29-.54,1.3-.96h.66Z"/>
    <path class="cls-4" d="M105.52,168.95c0,2.06-.51,2.89-1.69,2.89s-1.69-.83-1.69-2.89.47-2.89,1.69-2.89,1.69.91,1.69,2.89ZM103.83,171.2c.63,0,.78-.66.78-2.25,0-1.72-.2-2.25-.78-2.25s-.78.54-.78,2.25.17,2.25.78,2.25Z"/>
    <path class="cls-4" d="M109.44,168.95c0,2.06-.51,2.89-1.69,2.89s-1.69-.83-1.69-2.89.47-2.89,1.69-2.89,1.69.91,1.69,2.89ZM107.75,171.2c.63,0,.78-.66.78-2.25,0-1.72-.2-2.25-.78-2.25s-.78.54-.78,2.25.17,2.25.78,2.25Z"/>
    <path class="cls-4" d="M114.6,168.85h-.86c0-.51-.16-.9-.6-.9-.61,0-.75.58-.75,1.62,0,.97.13,1.62.74,1.62.58,0,.65-.59.65-1.04h.82c-.06,1-.38,1.68-1.47,1.68-1.3,0-1.6-1-1.6-2.26s.3-2.26,1.61-2.26c.98,0,1.46.61,1.46,1.54Z"/>
    <path class="cls-4" d="M118.25,169.56c0,1.13-.28,2.27-1.61,2.27s-1.6-1.15-1.6-2.27.24-2.25,1.6-2.25c1.29,0,1.61.98,1.61,2.25ZM116.64,171.2c.64,0,.74-.54.74-1.62s-.14-1.63-.75-1.63-.73.73-.73,1.62c0,1.08.11,1.62.74,1.62Z"/>
    <path class="cls-4" d="M121.75,167.97c.28-.47.63-.66,1.09-.66.7,0,1.05.41,1.05,1.14v3.27h-.86v-2.95c0-.5-.13-.78-.52-.78s-.69.31-.69.83v2.89h-.86v-2.96c0-.54-.15-.77-.53-.77-.4,0-.68.33-.68.83v2.89h-.86v-4.3h.82v.5h.02c.21-.38.62-.62,1.03-.62.46,0,.83.17,1,.66Z"/>
    <path class="cls-4" d="M127.86,169.63c0,1.45-.48,2.21-1.33,2.21-.46,0-.82-.22-.98-.62h-.02v1.91h-.86v-5.71h.82v.53h.02c.21-.43.54-.64.97-.64.94,0,1.38.78,1.38,2.32ZM126.23,171.15c.54,0,.72-.46.72-1.56,0-.95-.11-1.59-.73-1.59-.55,0-.73.5-.73,1.54s.15,1.61.74,1.61Z"/>
    <path class="cls-4" d="M131.3,168.36v2.46c0,.12.06.3.23.3.06,0,.1,0,.14-.02v.56c-.12.06-.26.1-.43.1-.45,0-.7-.22-.72-.57h-.02c-.24.43-.57.63-1.07.63-.72,0-1.12-.4-1.12-1.21,0-.95.42-1.19,1.14-1.39l.53-.14c.36-.1.5-.22.5-.55,0-.43-.17-.64-.59-.64-.52,0-.66.33-.66.81v.02h-.82v-.02c0-.98.46-1.4,1.51-1.4.71,0,1.37.26,1.37,1.06ZM129.71,171.2c.65,0,.78-.58.78-1.02v-.73c-.08.06-.22.14-.55.25l-.23.08c-.22.07-.53.2-.53.77,0,.4.21.65.54.65Z"/>
    <path class="cls-4" d="M135.16,168.48v3.25h-.86v-2.96c0-.55-.14-.77-.59-.77-.42,0-.7.33-.7.83v2.89h-.86v-4.3h.82v.5h.02c.21-.38.62-.62,1.1-.62.73,0,1.07.37,1.07,1.17Z"/>
    <path class="cls-4" d="M136.81,165.95v.86h-.86v-.86h.86ZM136.81,167.42v4.3h-.86v-4.3h.86Z"/>
    <path class="cls-4" d="M140.59,169.19v.5h-2.25v.19c0,.51.02,1.37.72,1.37.63,0,.69-.74.69-.96h.82c0,1-.61,1.55-1.51,1.55-.72,0-1.58-.22-1.58-2.2,0-1.59.53-2.33,1.59-2.33s1.52.6,1.52,1.88ZM139.73,169.09v-.22c0-.66-.23-.98-.67-.98-.46,0-.71.42-.71,1.1v.09h1.38Z"/>
    <path class="cls-4" d="M143.92,168.49v.18h-.82v-.1c0-.23-.04-.68-.57-.68-.39,0-.62.19-.62.56s.18.48.61.63l.58.2c.62.22.91.55.91,1.23,0,.87-.62,1.31-1.54,1.31-1.02,0-1.42-.43-1.42-1.34v-.16h.77v.12c0,.54.18.78.67.78s.7-.25.7-.63c0-.31-.17-.53-.47-.63l-.75-.26c-.62-.22-.87-.56-.87-1.22,0-.8.55-1.19,1.47-1.19s1.34.43,1.34,1.18Z"/>
    <path class="cls-4" d="M146.87,167.42l.6,3.39h.02l.64-3.39h.98l.64,3.39h.02l.59-3.39h.86l-.98,4.3h-.97l-.67-3.34h-.02l-.62,3.34h-1.01l-.98-4.3h.9Z"/>
    <path class="cls-4" d="M152.59,165.95v.86h-.86v-.86h.86ZM152.59,167.42v4.3h-.86v-4.3h.86Z"/>
    <path class="cls-4" d="M154.5,166.2v1.22h.7v.64h-.7v2.57c0,.32.09.45.39.45.13,0,.23,0,.31-.02v.64c-.19.05-.42.07-.69.07-.52,0-.88-.11-.88-1.02v-2.69h-.59v-.64h.59v-1.22h.86Z"/>
    <path class="cls-4" d="M156.5,166.01v1.87l.02.02c.26-.38.62-.59,1.06-.59.74,0,1.07.38,1.07,1.17v3.25h-.86v-2.96c0-.55-.16-.77-.59-.77s-.7.34-.7.82v2.9h-.86v-5.71h.86Z"/>
    <path class="cls-4" d="M162.17,166.2v1.22h.7v.64h-.7v2.57c0,.32.09.45.39.45.13,0,.23,0,.31-.02v.64c-.19.05-.42.07-.69.07-.52,0-.88-.11-.88-1.02v-2.69h-.59v-.64h.59v-1.22h.86Z"/>
    <path class="cls-4" d="M164.17,166.01v1.87l.02.02c.26-.38.62-.59,1.06-.59.74,0,1.07.38,1.07,1.17v3.25h-.86v-2.96c0-.55-.16-.77-.59-.77s-.7.34-.7.82v2.9h-.86v-5.71h.86Z"/>
    <path class="cls-4" d="M170.07,169.19v.5h-2.25v.19c0,.51.02,1.37.72,1.37.63,0,.69-.74.69-.96h.82c0,1-.61,1.55-1.51,1.55-.72,0-1.58-.22-1.58-2.2,0-1.59.53-2.33,1.59-2.33s1.52.6,1.52,1.88ZM169.21,169.09v-.22c0-.66-.23-.98-.67-.98-.46,0-.71.42-.71,1.1v.09h1.38Z"/>
    <path class="cls-4" d="M173.26,166.01v1.87l.02.02c.26-.38.62-.59,1.06-.59.74,0,1.07.38,1.07,1.17v3.25h-.86v-2.96c0-.55-.16-.77-.59-.77s-.7.34-.7.82v2.9h-.86v-5.71h.86Z"/>
    <path class="cls-4" d="M177.06,165.95v.86h-.86v-.86h.86ZM177.06,167.42v4.3h-.86v-4.3h.86Z"/>
    <path class="cls-4" d="M180.06,167.95h.02v-.53h.82v4.11c0,1.12-.54,1.66-1.61,1.66-.94,0-1.42-.41-1.42-1.1h.82c0,.3.28.51.62.51.45,0,.73-.3.73-.81v-.7h-.02c-.16.38-.56.59-.98.59-.86,0-1.29-.72-1.29-2.17,0-1.15.24-2.21,1.37-2.21.49,0,.86.3.94.64ZM179.29,171c.7,0,.74-.91.74-1.54,0-1-.21-1.47-.7-1.47-.62,0-.72.66-.72,1.44s.05,1.57.67,1.57Z"/>
    <path class="cls-4" d="M182.5,166.01v1.87l.02.02c.26-.38.62-.59,1.06-.59.74,0,1.07.38,1.07,1.17v3.25h-.86v-2.96c0-.55-.16-.77-.59-.77s-.7.34-.7.82v2.9h-.86v-5.71h.86Z"/>
    <path class="cls-4" d="M188.4,169.19v.5h-2.25v.19c0,.51.02,1.37.72,1.37.63,0,.69-.74.69-.96h.82c0,1-.61,1.55-1.51,1.55-.72,0-1.58-.22-1.58-2.2,0-1.59.53-2.33,1.59-2.33s1.52.6,1.52,1.88ZM187.54,169.09v-.22c0-.66-.23-.98-.67-.98-.46,0-.71.42-.71,1.1v.09h1.38Z"/>
    <path class="cls-4" d="M191.73,168.49v.18h-.82v-.1c0-.23-.04-.68-.57-.68-.39,0-.62.19-.62.56s.18.48.61.63l.58.2c.62.22.91.55.91,1.23,0,.87-.62,1.31-1.54,1.31-1.02,0-1.42-.43-1.42-1.34v-.16h.77v.12c0,.54.18.78.67.78s.7-.25.7-.63c0-.31-.17-.53-.47-.63l-.75-.26c-.62-.22-.87-.56-.87-1.22,0-.8.55-1.19,1.47-1.19s1.34.43,1.34,1.18Z"/>
    <path class="cls-4" d="M193.54,166.2v1.22h.7v.64h-.7v2.57c0,.32.09.45.39.45.13,0,.23,0,.31-.02v.64c-.19.05-.42.07-.69.07-.52,0-.88-.11-.88-1.02v-2.69h-.59v-.64h.59v-1.22h.86Z"/>
  </g>
  <g>
    <path class="cls-4" d="M65.74,174.97v.66h-.24c-.34,0-.46.14-.46.41v.38h.7v.64h-.7v3.66h-.86v-3.66h-.6v-.64h.6v-.41c0-.78.37-1.06,1.1-1.06.2,0,.34,0,.47.02Z"/>
    <path class="cls-4" d="M68.23,176.34v.88c-.1-.03-.23-.05-.36-.05-.56,0-.86.34-.86.97v2.58h-.86v-4.3h.86v.67h.02c.21-.52.54-.78,1-.78.12,0,.18.02.21.03Z"/>
    <path class="cls-4" d="M71.62,178.19v.5h-2.25v.19c0,.51.02,1.37.72,1.37.63,0,.69-.74.69-.96h.82c0,1-.61,1.55-1.51,1.55-.72,0-1.58-.22-1.58-2.2,0-1.59.53-2.33,1.59-2.33s1.52.6,1.52,1.88ZM70.75,178.09v-.22c0-.66-.23-.98-.67-.98-.46,0-.71.42-.71,1.1v.09h1.38Z"/>
    <path class="cls-4" d="M75.25,178.19v.5h-2.25v.19c0,.51.02,1.37.72,1.37.63,0,.69-.74.69-.96h.82c0,1-.61,1.55-1.51,1.55-.72,0-1.58-.22-1.58-2.2,0-1.59.53-2.33,1.59-2.33s1.52.6,1.52,1.88ZM74.39,178.09v-.22c0-.66-.23-.98-.67-.98-.46,0-.71.42-.71,1.1v.09h1.38Z"/>
    <path class="cls-4" d="M80.48,177.85h-.86c0-.51-.16-.9-.6-.9-.61,0-.75.58-.75,1.62,0,.97.13,1.62.74,1.62.58,0,.65-.59.65-1.04h.82c-.06,1-.38,1.68-1.47,1.68-1.3,0-1.6-1-1.6-2.26s.3-2.26,1.61-2.26c.98,0,1.46.61,1.46,1.54Z"/>
    <path class="cls-4" d="M83.91,177.36v2.46c0,.12.06.3.23.3.06,0,.1,0,.14-.02v.56c-.12.06-.26.1-.43.1-.45,0-.7-.22-.72-.57h-.02c-.24.43-.57.63-1.07.63-.72,0-1.12-.4-1.12-1.21,0-.95.42-1.19,1.14-1.39l.53-.14c.36-.1.5-.22.5-.55,0-.43-.17-.64-.59-.64-.52,0-.66.33-.66.81v.02h-.82v-.02c0-.98.46-1.4,1.51-1.4.71,0,1.37.26,1.37,1.06ZM82.32,180.2c.65,0,.78-.58.78-1.02v-.73c-.08.06-.22.14-.55.25l-.23.08c-.22.07-.53.2-.53.77,0,.4.21.65.54.65Z"/>
    <path class="cls-4" d="M87.48,177.49v.18h-.82v-.1c0-.23-.04-.68-.57-.68-.39,0-.62.19-.62.56s.18.48.61.63l.58.2c.62.22.91.55.91,1.23,0,.87-.62,1.31-1.54,1.31-1.02,0-1.42-.43-1.42-1.34v-.16h.77v.12c0,.54.18.78.67.78s.7-.25.7-.63c0-.31-.17-.53-.47-.63l-.75-.26c-.62-.22-.87-.56-.87-1.22,0-.8.55-1.19,1.47-1.19s1.34.43,1.34,1.18Z"/>
    <path class="cls-4" d="M89.03,175.01v1.87l.02.02c.26-.38.62-.59,1.06-.59.74,0,1.07.38,1.07,1.17v3.25h-.86v-2.96c0-.55-.16-.77-.59-.77s-.7.34-.7.82v2.9h-.86v-5.71h.86Z"/>
    <path class="cls-4" d="M95.47,174.97v.66h-.24c-.34,0-.46.14-.46.41v.38h.7v.64h-.7v3.66h-.86v-3.66h-.6v-.64h.6v-.41c0-.78.37-1.06,1.1-1.06.2,0,.34,0,.47.02ZM96.76,175.01v5.71h-.86v-5.71h.86Z"/>
    <path class="cls-4" d="M100.6,178.56c0,1.13-.28,2.27-1.61,2.27s-1.6-1.15-1.6-2.27.24-2.25,1.6-2.25c1.29,0,1.61.98,1.61,2.25ZM98.99,180.2c.64,0,.74-.54.74-1.62s-.14-1.63-.75-1.63-.73.73-.73,1.62c0,1.08.11,1.62.74,1.62Z"/>
    <path class="cls-4" d="M101.75,176.42l.6,3.39h.02l.64-3.39h.98l.64,3.39h.02l.59-3.39h.86l-.98,4.3h-.97l-.67-3.34h-.02l-.62,3.34h-1.01l-.98-4.3h.9Z"/>
    <path class="cls-4" d="M108.82,176.42l.74,3.23h.02l.69-3.23h.9l-1.1,4.15c-.36,1.34-.58,1.62-1.43,1.62-.19,0-.36,0-.5-.03v-.69c.13.02.24.03.33.03.3,0,.46-.1.56-.41l.09-.28-1.22-4.4h.93Z"/>
    <path class="cls-4" d="M112.51,174.95v.86h-.86v-.86h.86ZM112.51,176.42v4.3h-.86v-4.3h.86Z"/>
    <path class="cls-4" d="M116.29,178.19v.5h-2.25v.19c0,.51.02,1.37.72,1.37.63,0,.69-.74.69-.96h.82c0,1-.61,1.55-1.51,1.55-.72,0-1.58-.22-1.58-2.2,0-1.59.53-2.33,1.59-2.33s1.52.6,1.52,1.88ZM115.43,178.09v-.22c0-.66-.23-.98-.67-.98-.46,0-.71.42-.71,1.1v.09h1.38Z"/>
    <path class="cls-4" d="M117.83,175.01v5.71h-.86v-5.71h.86Z"/>
    <path class="cls-4" d="M121.65,175.01v5.71h-.82v-.53h-.02c-.15.42-.46.64-.94.64-.91,0-1.41-.7-1.41-2.32,0-1.9.66-2.21,1.33-2.21.47,0,.82.23.98.62h.02v-1.91h.86ZM120.11,180.15c.58,0,.73-.57.73-1.54,0-1.11-.15-1.61-.78-1.61-.49,0-.67.39-.67,1.56,0,1,.13,1.59.73,1.59Z"/>
    <path class="cls-4" d="M125.93,174.97v.66h-.24c-.34,0-.46.14-.46.41v.38h.7v.64h-.7v3.66h-.86v-3.66h-.6v-.64h.6v-.41c0-.78.37-1.06,1.1-1.06.2,0,.34,0,.47.02Z"/>
    <path class="cls-4" d="M128.42,176.34v.88c-.1-.03-.23-.05-.36-.05-.56,0-.86.34-.86.97v2.58h-.86v-4.3h.86v.67h.02c.21-.52.54-.78,1-.78.12,0,.18.02.21.03Z"/>
    <path class="cls-4" d="M131.89,178.56c0,1.13-.28,2.27-1.61,2.27s-1.6-1.15-1.6-2.27.24-2.25,1.6-2.25c1.29,0,1.61.98,1.61,2.25ZM130.28,180.2c.64,0,.74-.54.74-1.62s-.14-1.63-.75-1.63-.73.73-.73,1.62c0,1.08.11,1.62.74,1.62Z"/>
    <path class="cls-4" d="M135.39,176.97c.28-.47.63-.66,1.09-.66.7,0,1.05.41,1.05,1.14v3.27h-.86v-2.95c0-.5-.13-.78-.52-.78s-.69.31-.69.83v2.89h-.86v-2.96c0-.54-.15-.77-.53-.77-.4,0-.68.33-.68.83v2.89h-.86v-4.3h.82v.5h.02c.21-.38.62-.62,1.03-.62.46,0,.83.17,1,.66Z"/>
    <path class="cls-4" d="M141.09,175.2v1.22h.7v.64h-.7v2.57c0,.32.09.45.39.45.13,0,.23,0,.31-.02v.64c-.19.05-.42.07-.69.07-.52,0-.88-.11-.88-1.02v-2.69h-.59v-.64h.59v-1.22h.86Z"/>
    <path class="cls-4" d="M143.09,175.01v1.87l.02.02c.26-.38.62-.59,1.06-.59.74,0,1.07.38,1.07,1.17v3.25h-.86v-2.96c0-.55-.16-.77-.59-.77s-.7.34-.7.82v2.9h-.86v-5.71h.86Z"/>
    <path class="cls-4" d="M148.99,178.19v.5h-2.25v.19c0,.51.02,1.37.72,1.37.63,0,.69-.74.69-.96h.82c0,1-.61,1.55-1.51,1.55-.72,0-1.58-.22-1.58-2.2,0-1.59.53-2.33,1.59-2.33s1.52.6,1.52,1.88ZM148.13,178.09v-.22c0-.66-.23-.98-.67-.98-.46,0-.71.42-.71,1.1v.09h1.38Z"/>
    <path class="cls-4" d="M153.38,175.01c.94,0,1.46.54,1.46,1.47,0,.64-.25,1.29-.95,1.4v.02c.71.06.88.55.9,1.21l.02.75c0,.49.03.66.29.86h-1.03c-.14-.19-.17-.5-.18-.99v-.46c-.02-.67-.16-1.03-.84-1.03h-.75v2.48h-.91v-5.71h2.01ZM153.03,177.56c.34,0,.89-.16.89-.94,0-.58-.24-.92-.86-.92h-.78v1.86h.75Z"/>
    <path class="cls-4" d="M156.44,176.42v3.09c0,.46.19.64.58.64.36,0,.7-.22.7-.72v-3.01h.86v4.3h-.82v-.5h-.02c-.22.38-.62.62-1.1.62-.6,0-1.07-.26-1.07-1.4v-3.01h.86Z"/>
    <path class="cls-4" d="M162.06,177.49v.18h-.82v-.1c0-.23-.04-.68-.57-.68-.39,0-.62.19-.62.56s.18.48.61.63l.58.2c.62.22.91.55.91,1.23,0,.87-.62,1.31-1.54,1.31-1.02,0-1.42-.43-1.42-1.34v-.16h.77v.12c0,.54.18.78.67.78s.7-.25.7-.63c0-.31-.17-.53-.47-.63l-.75-.26c-.62-.22-.87-.56-.87-1.22,0-.8.55-1.19,1.47-1.19s1.34.43,1.34,1.18Z"/>
    <path class="cls-4" d="M165.46,177.49v.18h-.82v-.1c0-.23-.04-.68-.57-.68-.39,0-.62.19-.62.56s.18.48.61.63l.58.2c.62.22.91.55.91,1.23,0,.87-.62,1.31-1.54,1.31-1.02,0-1.42-.43-1.42-1.34v-.16h.77v.12c0,.54.18.78.67.78s.7-.25.7-.63c0-.31-.17-.53-.47-.63l-.75-.26c-.62-.22-.87-.56-.87-1.22,0-.8.55-1.19,1.47-1.19s1.34.43,1.34,1.18Z"/>
    <path class="cls-4" d="M169.13,178.19v.5h-2.25v.19c0,.51.02,1.37.72,1.37.63,0,.69-.74.69-.96h.82c0,1-.61,1.55-1.51,1.55-.72,0-1.58-.22-1.58-2.2,0-1.59.53-2.33,1.59-2.33s1.52.6,1.52,1.88ZM168.26,178.09v-.22c0-.66-.23-.98-.67-.98-.46,0-.71.42-.71,1.1v.09h1.38Z"/>
    <path class="cls-4" d="M170.66,175.01v5.71h-.86v-5.71h.86Z"/>
    <path class="cls-4" d="M172.33,175.01v5.71h-.86v-5.71h.86Z"/>
    <path class="cls-4" d="M176.97,175.06v5.66h-.91v-4.11h-1.18v-.59h.12c.99,0,1.29-.54,1.3-.96h.66Z"/>
    <path class="cls-4" d="M181.52,177.95c0,2.06-.51,2.89-1.69,2.89s-1.69-.83-1.69-2.89.47-2.89,1.69-2.89,1.69.91,1.69,2.89ZM179.82,180.2c.63,0,.78-.66.78-2.25,0-1.72-.2-2.25-.78-2.25s-.78.54-.78,2.25.17,2.25.78,2.25Z"/>
    <path class="cls-4" d="M185.44,177.95c0,2.06-.51,2.89-1.69,2.89s-1.69-.83-1.69-2.89.47-2.89,1.69-2.89,1.69.91,1.69,2.89ZM183.74,180.2c.63,0,.78-.66.78-2.25,0-1.72-.2-2.25-.78-2.25s-.78.54-.78,2.25.17,2.25.78,2.25Z"/>
    <path class="cls-4" d="M189.36,177.95c0,2.06-.51,2.89-1.69,2.89s-1.69-.83-1.69-2.89.47-2.89,1.69-2.89,1.69.91,1.69,2.89ZM187.66,180.2c.63,0,.78-.66.78-2.25,0-1.72-.2-2.25-.78-2.25s-.78.54-.78,2.25.17,2.25.78,2.25Z"/>
  </g>
  <g>
    <path class="cls-4" d="M64.83,184.01v5.71h-.91v-5.71h.91Z"/>
    <path class="cls-4" d="M68.67,186.48v3.25h-.86v-2.96c0-.55-.14-.77-.59-.77-.42,0-.7.33-.7.83v2.89h-.86v-4.3h.82v.5h.02c.21-.38.62-.62,1.1-.62.73,0,1.07.37,1.07,1.17Z"/>
    <path class="cls-4" d="M72.48,184.01v5.71h-.82v-.53h-.02c-.15.42-.46.64-.94.64-.91,0-1.41-.7-1.41-2.32,0-1.9.66-2.21,1.33-2.21.47,0,.82.23.98.62h.02v-1.91h.86ZM70.94,189.15c.58,0,.73-.57.73-1.54,0-1.11-.15-1.61-.78-1.61-.49,0-.67.39-.67,1.56,0,1,.13,1.59.73,1.59Z"/>
    <path class="cls-4" d="M76.24,187.19v.5h-2.25v.19c0,.51.02,1.37.72,1.37.63,0,.69-.74.69-.96h.82c0,1-.61,1.55-1.51,1.55-.72,0-1.58-.22-1.58-2.2,0-1.59.53-2.33,1.59-2.33s1.52.6,1.52,1.88ZM75.38,187.09v-.22c0-.66-.23-.98-.67-.98-.46,0-.71.42-.71,1.1v.09h1.38Z"/>
    <path class="cls-4" d="M77.41,185.42l.67,1.42.7-1.42h.93l-1.12,2.07,1.17,2.23h-.94l-.75-1.59-.75,1.59h-.92l1.18-2.23-1.11-2.07h.94Z"/>
    <path class="cls-4" d="M81.2,188.67v1.06h-.91v-1.06h.91Z"/>
  </g>
  <g>
    <path class="cls-4" d="M77.89,153.73c1.11,0,1.68.66,1.68,1.74,0,1.23-.7,1.74-1.82,1.74h-.6v2.23h-1.34v-5.71h2.09ZM77.14,156.22h.36c.39,0,.67-.17.67-.72,0-.58-.26-.78-.7-.78h-.34v1.5Z"/>
    <path class="cls-4" d="M83.1,156.28v2.27c0,.5.04.74.15.89h-1.25c-.05-.13-.06-.3-.07-.5h-.02c-.18.38-.58.61-1.02.61-.79,0-1.15-.45-1.15-1.31,0-.46.13-.73.33-.93.24-.23.55-.34.96-.44.26-.06.6-.14.7-.19.12-.07.17-.14.17-.4s-.12-.43-.41-.43c-.3,0-.46.14-.47.59h-1.15c0-1.19.74-1.44,1.68-1.44,1.05,0,1.55.33,1.55,1.28ZM81.38,158.66c.49,0,.52-.43.52-.58,0-.41,0-.74,0-.82-.11.1-.32.2-.43.25-.33.14-.47.19-.47.6,0,.36.14.55.38.55Z"/>
    <path class="cls-4" d="M87.22,156.72v.03h-1.2c0-.64-.14-.9-.49-.9-.42,0-.49.54-.49,1.43,0,.97.06,1.42.49,1.42.37,0,.46-.23.49-1.02h1.2c0,1.29-.5,1.87-1.71,1.87-1.62,0-1.76-1.14-1.76-2.42,0-1.42.49-2.13,1.77-2.13,1.15,0,1.7.5,1.7,1.71Z"/>
    <path class="cls-4" d="M91.08,157.34v.15h-2.18v.29c0,.74.14.98.47.98s.44-.22.47-.79h1.2c-.02,1.06-.58,1.59-1.68,1.59-1.6,0-1.76-1.09-1.76-2.42s.4-2.13,1.76-2.13c1.48,0,1.72.86,1.72,2.33ZM89.83,156.74v-.04c0-.59-.1-.9-.44-.9-.37,0-.5.26-.5.88v.06h.94Z"/>
    <path class="cls-4" d="M94.1,155.02v1.22c-.1-.02-.2-.03-.35-.03-.5,0-.86.18-.86.79v2.45h-1.3v-4.33h1.25v.61h.02c.2-.46.56-.72,1.04-.72.07,0,.14,0,.21.02Z"/>
    <path class="cls-4" d="M97.96,153.73v4.21c0,.43.17.71.54.71s.54-.26.54-.71v-4.21h1.34v3.87c0,1.35-.58,1.95-1.88,1.95-1.39,0-1.88-.7-1.88-1.95v-3.87h1.34Z"/>
    <path class="cls-4" d="M104.68,155.2v.12h-1.3c0-.58-.19-.8-.52-.8s-.54.2-.54.62c0,.57.57.74,1.1.94.68.26,1.36.58,1.36,1.67,0,1.22-.64,1.81-1.95,1.81-1.18,0-1.88-.43-1.88-1.55v-.3h1.3v.2c0,.53.18.76.58.76.38,0,.61-.24.61-.68,0-.38-.19-.62-.96-.9-.62-.22-.98-.43-1.2-.74-.2-.28-.3-.62-.3-1.04,0-.97.54-1.68,1.87-1.68,1.19,0,1.82.54,1.82,1.58Z"/>
    <path class="cls-4" d="M111.21,155.54v.18h-1.3v-.04c0-.86-.14-1.16-.54-1.16-.53,0-.58.49-.58,2.01,0,1.66.05,2.13.62,2.13.43,0,.56-.42.56-1.38v-.08h1.3v.23c0,1.35-.48,2.12-2,2.12-1.73,0-1.86-1.29-1.86-3.01,0-1.51.11-2.93,1.98-2.93,1.24,0,1.84.55,1.84,1.92Z"/>
    <path class="cls-4" d="M114.96,156.28v2.27c0,.5.04.74.15.89h-1.25c-.05-.13-.06-.3-.07-.5h-.02c-.18.38-.58.61-1.02.61-.79,0-1.15-.45-1.15-1.31,0-.46.13-.73.33-.93.24-.23.55-.34.96-.44.26-.06.6-.14.7-.19.12-.07.17-.14.17-.4s-.12-.43-.41-.43c-.3,0-.46.14-.47.59h-1.15c0-1.19.74-1.44,1.68-1.44,1.05,0,1.55.33,1.55,1.28ZM113.23,158.66c.49,0,.52-.43.52-.58,0-.41,0-.74,0-.82-.11.1-.32.2-.43.25-.33.14-.47.19-.47.6,0,.36.14.55.38.55Z"/>
    <path class="cls-4" d="M118.84,156.23v.14h-1.15v-.07c0-.36-.12-.49-.42-.49s-.44.12-.44.4c0,.3.3.41.79.56.66.2,1.28.46,1.28,1.38s-.6,1.42-1.65,1.42c-1.15,0-1.65-.42-1.65-1.3v-.18h1.15c.02.5.18.69.49.69s.46-.18.46-.44c0-.43-.44-.5-.89-.66-.79-.29-1.18-.54-1.18-1.34,0-.85.58-1.3,1.65-1.3,1.02,0,1.57.43,1.57,1.22Z"/>
    <path class="cls-4" d="M120.75,153.73v1.86h.02c.22-.42.53-.58.99-.58.78,0,1.13.42,1.13,1.2v3.24h-1.3v-2.95c0-.34-.14-.5-.38-.5-.28,0-.46.23-.46.61v2.84h-1.3v-5.71h1.3Z"/>
    <path class="cls-4" d="M129.44,155.54v.18h-1.3v-.04c0-.86-.14-1.16-.54-1.16-.53,0-.58.49-.58,2.01,0,1.66.05,2.13.62,2.13.43,0,.56-.42.56-1.38v-.08h1.3v.23c0,1.35-.48,2.12-2,2.12-1.73,0-1.86-1.29-1.86-3.01,0-1.51.11-2.93,1.98-2.93,1.24,0,1.84.55,1.84,1.92Z"/>
    <path class="cls-4" d="M133.41,157.27c0,1.35-.32,2.29-1.78,2.29-1.54,0-1.78-.9-1.78-2.26s.31-2.29,1.78-2.29,1.78.86,1.78,2.26ZM131.63,158.71c.42,0,.48-.42.48-1.42s-.05-1.43-.49-1.43-.49.53-.49,1.42c0,1.09.12,1.43.5,1.43Z"/>
    <path class="cls-4" d="M134.99,155.12l.42,3.19h.02l.49-3.19h1.39l.46,3.19h.02l.46-3.19h1.25l-.94,4.33h-1.46l-.47-3.19h-.02l-.5,3.19h-1.49l-.9-4.33h1.3Z"/>
    <path class="cls-4" d="M143,156.23v.14h-1.15v-.07c0-.36-.12-.49-.42-.49s-.44.12-.44.4c0,.3.3.41.79.56.66.2,1.28.46,1.28,1.38s-.6,1.42-1.65,1.42c-1.15,0-1.65-.42-1.65-1.3v-.18h1.15c.02.5.18.69.49.69s.46-.18.46-.44c0-.43-.44-.5-.89-.66-.79-.29-1.18-.54-1.18-1.34,0-.85.58-1.3,1.65-1.3,1.02,0,1.57.43,1.57,1.22Z"/>
    <path class="cls-4" d="M148.26,153.78v5.66h-1.34v-3.93h-1.09v-.85h.15c.78,0,1.22-.29,1.34-.89h.94Z"/>
    <path class="cls-4" d="M153.44,156.66c0,1.52-.13,2.89-1.86,2.89s-1.86-1.02-1.86-2.89c0-1.56.15-2.89,1.86-2.89s1.86,1.05,1.86,2.88ZM152.1,156.48c0-1.58-.12-1.86-.53-1.86s-.51.4-.51,1.88v.28c0,1.55.09,1.92.52,1.92.46,0,.52-.46.52-2.03v-.19Z"/>
    <path class="cls-4" d="M157.6,156.66c0,1.52-.13,2.89-1.86,2.89s-1.86-1.02-1.86-2.89c0-1.56.15-2.89,1.86-2.89s1.86,1.05,1.86,2.88ZM156.26,156.48c0-1.58-.12-1.86-.53-1.86s-.51.4-.51,1.88v.28c0,1.55.09,1.92.52,1.92.46,0,.52-.46.52-2.03v-.19Z"/>
    <path class="cls-4" d="M161.68,153.73v5.71h-1.34v-5.71h1.34Z"/>
    <path class="cls-4" d="M165.91,156.21v3.23h-1.3v-2.94c0-.34-.14-.5-.38-.5-.28,0-.46.23-.46.61v2.84h-1.3v-4.33h1.25v.51h.02c.19-.4.58-.62,1.04-.62.77,0,1.13.4,1.13,1.21Z"/>
    <path class="cls-4" d="M170.06,153.73v5.71h-1.25v-.53h-.02c-.15.41-.46.64-.94.64-.91,0-1.34-.7-1.34-2.25,0-1.33.2-2.3,1.26-2.3.46,0,.78.2.97.58h.02v-1.86h1.3ZM168.79,157.3c0-.83-.05-1.35-.48-1.35-.47,0-.49.55-.49,1.29s.04,1.37.5,1.37c.38,0,.46-.44.46-1.31Z"/>
    <path class="cls-4" d="M174.12,157.34v.15h-2.18v.29c0,.74.14.98.47.98s.44-.22.47-.79h1.2c-.02,1.06-.58,1.59-1.68,1.59-1.6,0-1.76-1.09-1.76-2.42s.4-2.13,1.76-2.13c1.48,0,1.72.86,1.72,2.33ZM172.87,156.74v-.04c0-.59-.1-.9-.44-.9-.37,0-.5.26-.5.88v.06h.94Z"/>
    <path class="cls-4" d="M175.67,155.12l.51,1.29.53-1.29h1.3l-1.08,2.09,1.16,2.24h-1.3l-.58-1.4-.61,1.4h-1.29l1.16-2.24-1.09-2.09h1.3Z"/>
  </g>
  <g>
    <path class="cls-4" d="M67,80.63v.13h-.91v-.08c0-.76-.27-1.13-.81-1.13-.71,0-.98.46-.98,2.25s.3,2.3.98,2.3c.57,0,.85-.46.85-1.35v-.12h.91v.09c0,1.35-.64,2.07-1.76,2.07-1.37,0-1.89-.81-1.89-2.97s.5-2.97,1.9-2.97c1.26,0,1.72.71,1.72,1.77Z"/>
    <path class="cls-4" d="M70.71,82.52c0,1.13-.28,2.27-1.61,2.27s-1.6-1.15-1.6-2.27.24-2.25,1.6-2.25c1.29,0,1.61.98,1.61,2.25ZM69.1,84.15c.64,0,.74-.54.74-1.62s-.14-1.63-.75-1.63-.73.73-.73,1.62c0,1.08.11,1.62.74,1.62Z"/>
    <path class="cls-4" d="M74.34,81.44v3.25h-.86v-2.96c0-.55-.14-.77-.59-.77-.42,0-.7.33-.7.83v2.89h-.86v-4.3h.82v.5h.02c.21-.38.62-.62,1.1-.62.73,0,1.07.37,1.07,1.17Z"/>
    <path class="cls-4" d="M77.79,81.45v.18h-.82v-.1c0-.23-.04-.68-.57-.68-.39,0-.62.19-.62.56s.18.48.61.63l.58.2c.62.22.91.55.91,1.23,0,.87-.62,1.31-1.54,1.31-1.02,0-1.42-.43-1.42-1.33v-.16h.77v.12c0,.54.18.78.67.78s.7-.25.7-.63c0-.31-.17-.53-.47-.63l-.75-.26c-.62-.22-.87-.56-.87-1.22,0-.8.55-1.19,1.47-1.19s1.34.43,1.34,1.18Z"/>
    <path class="cls-4" d="M79.37,78.91v.86h-.86v-.86h.86ZM79.37,80.38v4.3h-.86v-4.3h.86Z"/>
    <path class="cls-4" d="M82.86,81.45v.18h-.82v-.1c0-.23-.04-.68-.57-.68-.39,0-.62.19-.62.56s.18.48.61.63l.58.2c.62.22.91.55.91,1.23,0,.87-.62,1.31-1.54,1.31-1.02,0-1.42-.43-1.42-1.33v-.16h.77v.12c0,.54.18.78.67.78s.7-.25.7-.63c0-.31-.17-.53-.47-.63l-.75-.26c-.62-.22-.87-.56-.87-1.22,0-.8.55-1.19,1.47-1.19s1.34.43,1.34,1.18Z"/>
    <path class="cls-4" d="M84.67,79.16v1.22h.7v.64h-.7v2.57c0,.32.09.45.39.45.13,0,.23,0,.31-.02v.64c-.19.05-.42.07-.69.07-.52,0-.88-.11-.88-1.02v-2.69h-.59v-.64h.59v-1.22h.86Z"/>
    <path class="cls-4" d="M88.55,81.45v.18h-.82v-.1c0-.23-.04-.68-.57-.68-.39,0-.62.19-.62.56s.18.48.61.63l.58.2c.62.22.91.55.91,1.23,0,.87-.62,1.31-1.54,1.31-1.02,0-1.42-.43-1.42-1.33v-.16h.77v.12c0,.54.18.78.67.78s.7-.25.7-.63c0-.31-.17-.53-.47-.63l-.75-.26c-.62-.22-.87-.56-.87-1.22,0-.8.55-1.19,1.47-1.19s1.34.43,1.34,1.18Z"/>
    <path class="cls-4" d="M93.93,82.52c0,1.13-.28,2.27-1.61,2.27s-1.6-1.15-1.6-2.27.24-2.25,1.6-2.25c1.29,0,1.61.98,1.61,2.25ZM92.32,84.15c.64,0,.74-.54.74-1.62s-.14-1.63-.75-1.63-.73.73-.73,1.62c0,1.08.11,1.62.74,1.62Z"/>
    <path class="cls-4" d="M96.37,78.93v.66h-.24c-.34,0-.46.14-.46.41v.38h.7v.64h-.7v3.66h-.86v-3.66h-.6v-.64h.6v-.41c0-.78.37-1.06,1.1-1.06.2,0,.34,0,.47.02Z"/>
    <path class="cls-4" d="M99.45,79.16v1.22h.7v.64h-.7v2.57c0,.32.09.45.39.45.13,0,.23,0,.31-.02v.64c-.19.05-.42.07-.69.07-.52,0-.88-.11-.88-1.02v-2.69h-.59v-.64h.59v-1.22h.86Z"/>
    <path class="cls-4" d="M101.45,78.97v1.87l.02.02c.26-.38.62-.59,1.06-.59.74,0,1.07.38,1.07,1.17v3.25h-.86v-2.96c0-.55-.16-.77-.59-.77s-.7.34-.7.82v2.9h-.86v-5.71h.86Z"/>
    <path class="cls-4" d="M107.35,82.15v.5h-2.25v.19c0,.51.02,1.37.72,1.37.63,0,.69-.74.69-.96h.82c0,1-.61,1.55-1.51,1.55-.72,0-1.58-.22-1.58-2.2,0-1.59.53-2.33,1.59-2.33s1.52.6,1.52,1.88ZM106.49,82.05v-.22c0-.66-.23-.98-.67-.98-.46,0-.71.42-.71,1.1v.09h1.38Z"/>
    <path class="cls-4" d="M111.83,79.02v5.66h-.91v-4.11h-1.18v-.59h.12c.99,0,1.29-.54,1.3-.96h.66Z"/>
    <path class="cls-4" d="M116.38,81.91c0,2.06-.51,2.89-1.7,2.89s-1.7-.83-1.7-2.89.47-2.89,1.7-2.89,1.7.91,1.7,2.89ZM114.68,84.15c.63,0,.78-.66.78-2.25,0-1.72-.2-2.25-.78-2.25s-.78.54-.78,2.25.17,2.25.78,2.25Z"/>
    <path class="cls-4" d="M120.3,81.91c0,2.06-.51,2.89-1.7,2.89s-1.7-.83-1.7-2.89.47-2.89,1.7-2.89,1.7.91,1.7,2.89ZM118.6,84.15c.63,0,.78-.66.78-2.25,0-1.72-.2-2.25-.78-2.25s-.78.54-.78,2.25.17,2.25.78,2.25Z"/>
    <path class="cls-4" d="M123.46,78.97v5.71h-.86v-5.71h.86Z"/>
    <path class="cls-4" d="M127.07,81.32v2.46c0,.12.06.3.23.3.06,0,.1,0,.14-.02v.56c-.12.06-.26.1-.43.1-.45,0-.7-.22-.72-.57h-.02c-.24.43-.57.63-1.07.63-.72,0-1.12-.4-1.12-1.21,0-.95.42-1.19,1.14-1.39l.53-.14c.36-.1.5-.22.5-.55,0-.43-.17-.64-.59-.64-.52,0-.66.33-.66.81v.02h-.82v-.02c0-.98.46-1.4,1.51-1.4.71,0,1.37.26,1.37,1.06ZM125.48,84.15c.65,0,.78-.58.78-1.02v-.73c-.08.06-.22.14-.55.25l-.23.08c-.22.07-.53.2-.53.77,0,.4.21.65.54.65Z"/>
    <path class="cls-4" d="M130,80.3v.88c-.1-.03-.23-.05-.36-.05-.56,0-.86.34-.86.97v2.58h-.86v-4.3h.86v.67h.02c.21-.52.54-.78,1-.78.12,0,.18.02.21.03Z"/>
    <path class="cls-4" d="M132.64,80.91h.02v-.53h.82v4.11c0,1.12-.54,1.66-1.61,1.66-.94,0-1.42-.41-1.42-1.1h.82c0,.3.28.51.62.51.45,0,.73-.3.73-.81v-.7h-.02c-.16.38-.56.59-.98.59-.86,0-1.29-.72-1.29-2.17,0-1.15.24-2.21,1.37-2.21.49,0,.86.3.94.64ZM131.87,83.96c.7,0,.74-.91.74-1.54,0-1-.21-1.47-.7-1.47-.62,0-.72.66-.72,1.44s.05,1.57.67,1.57Z"/>
    <path class="cls-4" d="M137.2,82.15v.5h-2.25v.19c0,.51.02,1.37.72,1.37.63,0,.69-.74.69-.96h.82c0,1-.61,1.55-1.51,1.55-.72,0-1.58-.22-1.58-2.2,0-1.59.53-2.33,1.59-2.33s1.52.6,1.52,1.88ZM136.34,82.05v-.22c0-.66-.23-.98-.67-.98-.46,0-.71.42-.71,1.1v.09h1.38Z"/>
    <path class="cls-4" d="M140.54,81.45v.18h-.82v-.1c0-.23-.04-.68-.57-.68-.39,0-.62.19-.62.56s.18.48.61.63l.58.2c.62.22.91.55.91,1.23,0,.87-.62,1.31-1.54,1.31-1.02,0-1.42-.43-1.42-1.33v-.16h.77v.12c0,.54.18.78.67.78s.7-.25.7-.63c0-.31-.17-.53-.47-.63l-.75-.26c-.62-.22-.87-.56-.87-1.22,0-.8.55-1.19,1.47-1.19s1.34.43,1.34,1.18Z"/>
    <path class="cls-4" d="M142.35,79.16v1.22h.7v.64h-.7v2.57c0,.32.09.45.39.45.13,0,.23,0,.31-.02v.64c-.19.05-.42.07-.69.07-.52,0-.88-.11-.88-1.02v-2.69h-.59v-.64h.59v-1.22h.86Z"/>
    <path class="cls-4" d="M148.13,81.44v3.25h-.86v-2.96c0-.55-.14-.77-.59-.77-.42,0-.7.33-.7.83v2.89h-.86v-4.3h.82v.5h.02c.21-.38.62-.62,1.1-.62.73,0,1.07.37,1.07,1.17Z"/>
    <path class="cls-4" d="M151.95,82.52c0,1.13-.28,2.27-1.61,2.27s-1.6-1.15-1.6-2.27.24-2.25,1.6-2.25c1.29,0,1.61.98,1.61,2.25ZM150.35,84.15c.64,0,.74-.54.74-1.62s-.14-1.63-.75-1.63-.73.73-.73,1.62c0,1.08.11,1.62.74,1.62Z"/>
    <path class="cls-4" d="M155.58,81.44v3.25h-.86v-2.96c0-.55-.14-.77-.59-.77-.42,0-.7.33-.7.83v2.89h-.86v-4.3h.82v.5h.02c.21-.38.62-.62,1.1-.62.73,0,1.07.37,1.07,1.17Z"/>
    <path class="cls-4" d="M158.21,78.93v.66h-.24c-.34,0-.46.14-.46.41v.38h.7v.64h-.7v3.66h-.86v-3.66h-.6v-.64h.6v-.41c0-.78.37-1.06,1.1-1.06.2,0,.34,0,.47.02ZM159.5,78.91v.86h-.86v-.86h.86ZM159.5,80.38v4.3h-.86v-4.3h.86Z"/>
    <path class="cls-4" d="M163.3,81.44v3.25h-.86v-2.96c0-.55-.14-.77-.59-.77-.42,0-.7.33-.7.83v2.89h-.86v-4.3h.82v.5h.02c.21-.38.62-.62,1.1-.62.73,0,1.07.37,1.07,1.17Z"/>
    <path class="cls-4" d="M166.9,81.32v2.46c0,.12.06.3.23.3.06,0,.1,0,.14-.02v.56c-.12.06-.26.1-.43.1-.45,0-.7-.22-.72-.57h-.02c-.24.43-.57.63-1.07.63-.72,0-1.12-.4-1.12-1.21,0-.95.42-1.19,1.14-1.39l.53-.14c.36-.1.5-.22.5-.55,0-.43-.17-.64-.59-.64-.52,0-.66.33-.66.81v.02h-.82v-.02c0-.98.46-1.4,1.51-1.4.71,0,1.37.26,1.37,1.06ZM165.31,84.15c.65,0,.78-.58.78-1.02v-.73c-.08.06-.22.14-.55.25l-.23.08c-.22.07-.53.2-.53.77,0,.4.21.65.54.65Z"/>
    <path class="cls-4" d="M170.76,81.44v3.25h-.86v-2.96c0-.55-.14-.77-.59-.77-.42,0-.7.33-.7.83v2.89h-.86v-4.3h.82v.5h.02c.21-.38.62-.62,1.1-.62.73,0,1.07.37,1.07,1.17Z"/>
    <path class="cls-4" d="M174.46,81.81h-.86c0-.51-.16-.9-.6-.9-.61,0-.75.58-.75,1.62,0,.98.13,1.62.74,1.62.58,0,.65-.59.65-1.04h.82c-.06,1-.38,1.68-1.47,1.68-1.3,0-1.6-1-1.6-2.26s.3-2.26,1.61-2.26c.98,0,1.46.61,1.46,1.54Z"/>
    <path class="cls-4" d="M175.93,78.91v.86h-.86v-.86h.86ZM175.93,80.38v4.3h-.86v-4.3h.86Z"/>
    <path class="cls-4" d="M179.54,81.32v2.46c0,.12.06.3.23.3.06,0,.1,0,.14-.02v.56c-.12.06-.26.1-.43.1-.45,0-.7-.22-.72-.57h-.02c-.24.43-.57.63-1.07.63-.72,0-1.12-.4-1.12-1.21,0-.95.42-1.19,1.14-1.39l.53-.14c.36-.1.5-.22.5-.55,0-.43-.17-.64-.59-.64-.52,0-.66.33-.66.81v.02h-.82v-.02c0-.98.46-1.4,1.51-1.4.71,0,1.37.26,1.37,1.06ZM177.95,84.15c.65,0,.78-.58.78-1.02v-.73c-.08.06-.22.14-.55.25l-.23.08c-.22.07-.53.2-.53.77,0,.4.21.65.54.65Z"/>
    <path class="cls-4" d="M181.28,78.97v5.71h-.86v-5.71h.86Z"/>
  </g>
  <g>
    <path class="cls-4" d="M66.14,90.45v.18h-.82v-.1c0-.23-.04-.68-.57-.68-.39,0-.62.19-.62.56s.18.48.61.63l.58.2c.62.22.91.55.91,1.23,0,.87-.62,1.31-1.54,1.31-1.02,0-1.42-.43-1.42-1.33v-.16h.77v.12c0,.54.18.78.67.78s.7-.25.7-.63c0-.31-.17-.53-.47-.63l-.75-.26c-.62-.22-.87-.56-.87-1.22,0-.8.55-1.19,1.47-1.19s1.34.43,1.34,1.18Z"/>
    <path class="cls-4" d="M69.81,91.15v.5h-2.25v.19c0,.51.02,1.37.72,1.37.63,0,.69-.74.69-.96h.82c0,1-.61,1.55-1.51,1.55-.72,0-1.58-.22-1.58-2.2,0-1.59.53-2.33,1.59-2.33s1.52.6,1.52,1.88ZM68.95,91.05v-.22c0-.66-.23-.98-.67-.98-.46,0-.71.42-.71,1.1v.09h1.38Z"/>
    <path class="cls-4" d="M73.39,90.81h-.86c0-.51-.16-.9-.6-.9-.61,0-.75.58-.75,1.62,0,.98.13,1.62.74,1.62.58,0,.65-.59.65-1.04h.82c-.06,1-.38,1.68-1.47,1.68-1.3,0-1.6-1-1.6-2.26s.3-2.26,1.61-2.26c.98,0,1.46.61,1.46,1.54Z"/>
    <path class="cls-4" d="M74.83,89.38v3.09c0,.46.19.64.58.64.36,0,.7-.22.7-.72v-3.01h.86v4.3h-.82v-.5h-.02c-.22.38-.62.62-1.1.62-.6,0-1.07-.26-1.07-1.4v-3.01h.86Z"/>
    <path class="cls-4" d="M79.83,89.3v.88c-.1-.03-.23-.05-.36-.05-.56,0-.86.34-.86.97v2.58h-.86v-4.3h.86v.67h.02c.21-.52.54-.78,1-.78.12,0,.18.02.21.03Z"/>
    <path class="cls-4" d="M81.15,87.91v.86h-.86v-.86h.86ZM81.15,89.38v4.3h-.86v-4.3h.86Z"/>
    <path class="cls-4" d="M83.06,88.16v1.22h.7v.64h-.7v2.57c0,.32.09.45.39.45.13,0,.23,0,.31-.02v.64c-.19.05-.42.07-.69.07-.52,0-.88-.11-.88-1.02v-2.69h-.59v-.64h.59v-1.22h.86Z"/>
    <path class="cls-4" d="M85.08,87.91v.86h-.86v-.86h.86ZM85.08,89.38v4.3h-.86v-4.3h.86Z"/>
    <path class="cls-4" d="M88.87,91.15v.5h-2.25v.19c0,.51.02,1.37.72,1.37.63,0,.69-.74.69-.96h.82c0,1-.61,1.55-1.51,1.55-.72,0-1.58-.22-1.58-2.2,0-1.59.53-2.33,1.59-2.33s1.52.6,1.52,1.88ZM88,91.05v-.22c0-.66-.23-.98-.67-.98-.46,0-.71.42-.71,1.1v.09h1.38Z"/>
    <path class="cls-4" d="M92.19,90.45v.18h-.82v-.1c0-.23-.04-.68-.57-.68-.39,0-.62.19-.62.56s.18.48.61.63l.58.2c.62.22.91.55.91,1.23,0,.87-.62,1.31-1.54,1.31-1.02,0-1.42-.43-1.42-1.33v-.16h.77v.12c0,.54.18.78.67.78s.7-.25.7-.63c0-.31-.17-.53-.47-.63l-.75-.26c-.62-.22-.87-.56-.87-1.22,0-.8.55-1.19,1.47-1.19s1.34.43,1.34,1.18Z"/>
    <path class="cls-4" d="M95.45,87.97v5.71h-.86v-5.71h.86Z"/>
    <path class="cls-4" d="M97.11,87.91v.86h-.86v-.86h.86ZM97.11,89.38v4.3h-.86v-4.3h.86Z"/>
    <path class="cls-4" d="M100.6,90.45v.18h-.82v-.1c0-.23-.04-.68-.57-.68-.39,0-.62.19-.62.56s.18.48.61.63l.58.2c.62.22.91.55.91,1.23,0,.87-.62,1.31-1.54,1.31-1.02,0-1.42-.43-1.42-1.33v-.16h.77v.12c0,.54.18.78.67.78s.7-.25.7-.63c0-.31-.17-.53-.47-.63l-.75-.26c-.62-.22-.87-.56-.87-1.22,0-.8.55-1.19,1.47-1.19s1.34.43,1.34,1.18Z"/>
    <path class="cls-4" d="M102.42,88.16v1.22h.7v.64h-.7v2.57c0,.32.09.45.39.45.13,0,.23,0,.31-.02v.64c-.19.05-.42.07-.69.07-.52,0-.88-.11-.88-1.02v-2.69h-.59v-.64h.59v-1.22h.86Z"/>
    <path class="cls-4" d="M106.51,91.15v.5h-2.25v.19c0,.51.02,1.37.72,1.37.63,0,.69-.74.69-.96h.82c0,1-.61,1.55-1.51,1.55-.72,0-1.58-.22-1.58-2.2,0-1.59.53-2.33,1.59-2.33s1.52.6,1.52,1.88ZM105.65,91.05v-.22c0-.66-.23-.98-.67-.98-.46,0-.71.42-.71,1.1v.09h1.38Z"/>
    <path class="cls-4" d="M110.2,87.97v5.71h-.82v-.53h-.02c-.15.42-.46.64-.94.64-.91,0-1.41-.7-1.41-2.32,0-1.9.66-2.21,1.33-2.21.47,0,.82.23.98.62h.02v-1.91h.86ZM108.66,93.11c.58,0,.73-.57.73-1.54,0-1.11-.15-1.62-.78-1.62-.49,0-.67.39-.67,1.56,0,1,.13,1.59.73,1.59Z"/>
    <path class="cls-4" d="M115.69,91.52c0,1.13-.28,2.27-1.61,2.27s-1.6-1.15-1.6-2.27.24-2.25,1.6-2.25c1.29,0,1.61.98,1.61,2.25ZM114.08,93.15c.64,0,.74-.54.74-1.62s-.14-1.63-.75-1.63-.73.73-.73,1.62c0,1.08.11,1.62.74,1.62Z"/>
    <path class="cls-4" d="M119.32,90.44v3.25h-.86v-2.96c0-.55-.14-.77-.59-.77-.42,0-.7.33-.7.83v2.89h-.86v-4.3h.82v.5h.02c.21-.38.62-.62,1.1-.62.73,0,1.07.37,1.07,1.17Z"/>
    <path class="cls-4" d="M122.84,88.16v1.22h.7v.64h-.7v2.57c0,.32.09.45.39.45.13,0,.23,0,.31-.02v.64c-.19.05-.42.07-.69.07-.52,0-.88-.11-.88-1.02v-2.69h-.59v-.64h.59v-1.22h.86Z"/>
    <path class="cls-4" d="M124.84,87.97v1.87l.02.02c.26-.38.62-.59,1.06-.59.74,0,1.07.38,1.07,1.17v3.25h-.86v-2.96c0-.55-.16-.77-.59-.77s-.7.34-.7.82v2.9h-.86v-5.71h.86Z"/>
    <path class="cls-4" d="M130.74,91.15v.5h-2.25v.19c0,.51.02,1.37.72,1.37.63,0,.69-.74.69-.96h.82c0,1-.61,1.55-1.51,1.55-.72,0-1.58-.22-1.58-2.2,0-1.59.53-2.33,1.59-2.33s1.52.6,1.52,1.88ZM129.88,91.05v-.22c0-.66-.23-.98-.67-.98-.46,0-.71.42-.71,1.1v.09h1.38Z"/>
    <path class="cls-4" d="M134.23,87.97l1.66,4.25h.02v-4.25h.86v5.71h-1.11l-1.66-4.37h-.02v4.37h-.86v-5.71h1.11Z"/>
    <path class="cls-4" d="M140.06,87.97l1.5,5.71h-.95l-.35-1.4h-1.67l-.37,1.4h-.95l1.62-5.71h1.17ZM138.76,91.56h1.35l-.66-2.81h-.02l-.68,2.81Z"/>
    <path class="cls-4" d="M145.29,89.34v.15h-.91v-.1c0-.39-.1-.85-.8-.85-.46,0-.77.28-.77.82,0,.48.24.74.86.97l.62.22c.65.24,1.16.58,1.16,1.51,0,1.14-.65,1.72-1.89,1.72-1.14,0-1.74-.61-1.74-1.77v-.11h.91v.13c0,.78.37,1.06.94,1.06s.86-.4.86-.83c0-.59-.27-.83-.78-1.01l-.62-.22c-.77-.26-1.22-.7-1.22-1.58,0-1.01.67-1.62,1.78-1.62s1.61.48,1.61,1.48Z"/>
    <path class="cls-4" d="M146.15,87.97h1.63c1.8,0,2.01,1.21,2.01,2.85s-.2,2.85-2,2.85h-1.64v-5.71ZM147.07,92.99h.76c.79,0,1.06-.59,1.06-2.17s-.22-2.17-1.06-2.17h-.76v4.33Z"/>
    <path class="cls-4" d="M152.81,87.97l1.5,5.71h-.95l-.35-1.4h-1.67l-.37,1.4h-.95l1.62-5.71h1.17ZM151.5,91.56h1.35l-.66-2.81h-.02l-.68,2.81Z"/>
    <path class="cls-4" d="M158.3,90.83c0,.95-.16,1.79-.45,2.26l.58.62-.54.49-.58-.59c-.23.14-.54.19-.9.19-1.3,0-1.89-.92-1.89-2.97s.59-2.97,1.89-2.97,1.89.9,1.89,2.97ZM156.41,93.11c.15,0,.26-.02.34-.06l-.43-.42.52-.52.38.38c.12-.38.18-.94.18-1.68,0-1.92-.42-2.25-.98-2.25-.64,0-.97.56-.97,2.25,0,1.87.39,2.3.97,2.3Z"/>
    <path class="cls-4" d="M163.98,89.34v.15h-.91v-.1c0-.39-.1-.85-.8-.85-.46,0-.77.28-.77.82,0,.48.24.74.86.97l.62.22c.65.24,1.16.58,1.16,1.51,0,1.14-.65,1.72-1.89,1.72-1.14,0-1.74-.61-1.74-1.77v-.11h.91v.13c0,.78.37,1.06.94,1.06s.86-.4.86-.83c0-.59-.27-.83-.78-1.01l-.62-.22c-.77-.26-1.22-.7-1.22-1.58,0-1.01.67-1.62,1.78-1.62s1.61.48,1.61,1.48Z"/>
    <path class="cls-4" d="M165.92,88.16v1.22h.7v.64h-.7v2.57c0,.32.09.45.39.45.13,0,.23,0,.31-.02v.64c-.19.05-.42.07-.69.07-.52,0-.88-.11-.88-1.02v-2.69h-.59v-.64h.59v-1.22h.86Z"/>
    <path class="cls-4" d="M170.07,91.52c0,1.13-.28,2.27-1.61,2.27s-1.6-1.15-1.6-2.27.24-2.25,1.6-2.25c1.29,0,1.61.98,1.61,2.25ZM168.46,93.15c.64,0,.74-.54.74-1.62s-.14-1.63-.75-1.63-.73.73-.73,1.62c0,1.08.11,1.62.74,1.62Z"/>
    <path class="cls-4" d="M173.62,90.81h-.86c0-.51-.16-.9-.6-.9-.61,0-.75.58-.75,1.62,0,.98.13,1.62.74,1.62.58,0,.65-.59.65-1.04h.82c-.06,1-.38,1.68-1.47,1.68-1.3,0-1.6-1-1.6-2.26s.3-2.26,1.61-2.26c.98,0,1.46.61,1.46,1.54Z"/>
    <path class="cls-4" d="M175.06,87.97v3.21h.02l1.3-1.8h1l-1.3,1.66,1.46,2.65h-.94l-1.06-1.96-.49.59v1.37h-.86v-5.71h.86Z"/>
  </g>
  <g>
    <path class="cls-4" d="M64.95,96.97l1.01,4.23h.02l.99-4.23h1.39v5.71h-.86v-4.75h-.02l-1.15,4.75h-.77l-1.15-4.75h-.02v4.75h-.86v-5.71h1.42Z"/>
    <path class="cls-4" d="M72.03,99.32v2.46c0,.12.06.3.23.3.06,0,.1,0,.14-.02v.56c-.12.06-.26.1-.43.1-.45,0-.7-.22-.72-.57h-.02c-.24.43-.57.63-1.07.63-.72,0-1.12-.4-1.12-1.21,0-.95.42-1.19,1.14-1.39l.53-.14c.36-.1.5-.22.5-.55,0-.43-.17-.64-.59-.64-.52,0-.66.33-.66.81v.02h-.82v-.02c0-.98.46-1.4,1.51-1.4.71,0,1.37.26,1.37,1.06ZM70.44,102.15c.65,0,.78-.58.78-1.02v-.73c-.08.06-.22.14-.55.25l-.23.08c-.22.07-.53.2-.53.77,0,.4.21.65.54.65Z"/>
    <path class="cls-4" d="M74.96,98.3v.88c-.1-.03-.23-.05-.36-.05-.56,0-.86.34-.86.97v2.58h-.86v-4.3h.86v.67h.02c.21-.52.54-.78,1-.78.12,0,.18.02.21.03Z"/>
    <path class="cls-4" d="M76.26,96.97v3.21h.02l1.3-1.8h1l-1.3,1.66,1.46,2.65h-.94l-1.06-1.96-.49.59v1.37h-.86v-5.71h.86Z"/>
    <path class="cls-4" d="M81.95,100.15v.5h-2.25v.19c0,.51.02,1.37.72,1.37.63,0,.69-.74.69-.96h.82c0,1-.61,1.55-1.51,1.55-.72,0-1.58-.22-1.58-2.2,0-1.59.53-2.33,1.59-2.33s1.52.6,1.52,1.88ZM81.08,100.05v-.22c0-.66-.23-.98-.67-.98-.46,0-.71.42-.71,1.1v.09h1.38Z"/>
    <path class="cls-4" d="M83.71,97.16v1.22h.7v.64h-.7v2.57c0,.32.09.45.39.45.13,0,.23,0,.31-.02v.64c-.19.05-.42.07-.69.07-.52,0-.88-.11-.88-1.02v-2.69h-.59v-.64h.59v-1.22h.86Z"/>
    <path class="cls-4" d="M87.34,96.97v1.91h.02c.16-.38.5-.62.98-.62.7,0,1.33.35,1.33,2.21,0,1.58-.47,2.32-1.41,2.32-.46,0-.79-.22-.94-.64h-.02v.53h-.82v-5.71h.86ZM88.02,102.11c.58,0,.73-.55.73-1.59,0-1.18-.18-1.56-.68-1.56-.67,0-.78.62-.78,1.62s.14,1.54.73,1.54Z"/>
    <path class="cls-4" d="M93.1,99.32v2.46c0,.12.06.3.23.3.06,0,.1,0,.14-.02v.56c-.12.06-.26.1-.43.1-.45,0-.7-.22-.72-.57h-.02c-.24.43-.57.63-1.07.63-.72,0-1.12-.4-1.12-1.21,0-.95.42-1.19,1.14-1.39l.53-.14c.36-.1.5-.22.5-.55,0-.43-.17-.64-.59-.64-.52,0-.66.33-.66.81v.02h-.82v-.02c0-.98.46-1.4,1.51-1.4.71,0,1.37.26,1.37,1.06ZM91.51,102.15c.65,0,.78-.58.78-1.02v-.73c-.08.06-.22.14-.55.25l-.23.08c-.22.07-.53.2-.53.77,0,.4.21.65.54.65Z"/>
    <path class="cls-4" d="M96.67,99.45v.18h-.82v-.1c0-.23-.04-.68-.57-.68-.39,0-.62.19-.62.56s.18.48.61.63l.58.2c.62.22.91.55.91,1.23,0,.87-.62,1.31-1.54,1.31-1.02,0-1.42-.43-1.42-1.33v-.16h.77v.12c0,.54.18.78.67.78s.7-.25.7-.63c0-.31-.17-.53-.47-.63l-.75-.26c-.62-.22-.87-.56-.87-1.22,0-.8.55-1.19,1.47-1.19s1.34.43,1.34,1.18Z"/>
    <path class="cls-4" d="M100.35,100.15v.5h-2.25v.19c0,.51.02,1.37.72,1.37.63,0,.69-.74.69-.96h.82c0,1-.61,1.55-1.51,1.55-.72,0-1.58-.22-1.58-2.2,0-1.59.53-2.33,1.59-2.33s1.52.6,1.52,1.88ZM99.48,100.05v-.22c0-.66-.23-.98-.67-.98-.46,0-.71.42-.71,1.1v.09h1.38Z"/>
    <path class="cls-4" d="M104.03,96.97v5.71h-.82v-.53h-.02c-.15.42-.46.64-.94.64-.91,0-1.41-.7-1.41-2.32,0-1.9.66-2.21,1.33-2.21.47,0,.82.23.98.62h.02v-1.91h.86ZM102.49,102.11c.58,0,.73-.57.73-1.54,0-1.11-.15-1.62-.78-1.62-.49,0-.67.39-.67,1.56,0,1,.13,1.59.73,1.59Z"/>
    <path class="cls-4" d="M109.52,100.52c0,1.13-.28,2.27-1.61,2.27s-1.6-1.15-1.6-2.27.24-2.25,1.6-2.25c1.29,0,1.61.98,1.61,2.25ZM107.91,102.15c.64,0,.74-.54.74-1.62s-.14-1.63-.75-1.63-.73.73-.73,1.62c0,1.08.11,1.62.74,1.62Z"/>
    <path class="cls-4" d="M113.15,99.44v3.25h-.86v-2.96c0-.55-.14-.77-.59-.77-.42,0-.7.33-.7.83v2.89h-.86v-4.3h.82v.5h.02c.21-.38.62-.62,1.1-.62.73,0,1.07.37,1.07,1.17Z"/>
    <path class="cls-4" d="M118.51,98.92c.28-.47.63-.66,1.09-.66.7,0,1.05.41,1.05,1.14v3.27h-.86v-2.95c0-.5-.13-.78-.52-.78s-.69.31-.69.83v2.89h-.86v-2.96c0-.54-.15-.77-.53-.77-.4,0-.68.34-.68.83v2.89h-.86v-4.3h.82v.5h.02c.21-.38.62-.62,1.03-.62.46,0,.83.17,1,.66Z"/>
    <path class="cls-4" d="M124.27,99.32v2.46c0,.12.06.3.23.3.06,0,.1,0,.14-.02v.56c-.12.06-.26.1-.43.1-.45,0-.7-.22-.72-.57h-.02c-.24.43-.57.63-1.07.63-.72,0-1.12-.4-1.12-1.21,0-.95.42-1.19,1.14-1.39l.53-.14c.36-.1.5-.22.5-.55,0-.43-.17-.64-.59-.64-.52,0-.66.33-.66.81v.02h-.82v-.02c0-.98.46-1.4,1.51-1.4.71,0,1.37.26,1.37,1.06ZM122.68,102.15c.65,0,.78-.58.78-1.02v-.73c-.08.06-.22.14-.55.25l-.23.08c-.22.07-.53.2-.53.77,0,.4.21.65.54.65Z"/>
    <path class="cls-4" d="M127.2,98.3v.88c-.1-.03-.23-.05-.36-.05-.56,0-.86.34-.86.97v2.58h-.86v-4.3h.86v.67h.02c.21-.52.54-.78,1-.78.12,0,.18.02.21.03Z"/>
    <path class="cls-4" d="M128.5,96.97v3.21h.02l1.3-1.8h1l-1.3,1.66,1.46,2.65h-.94l-1.06-1.96-.49.59v1.37h-.86v-5.71h.86Z"/>
    <path class="cls-4" d="M134.18,100.15v.5h-2.25v.19c0,.51.02,1.37.72,1.37.63,0,.69-.74.69-.96h.82c0,1-.61,1.55-1.51,1.55-.72,0-1.58-.22-1.58-2.2,0-1.59.53-2.33,1.59-2.33s1.52.6,1.52,1.88ZM133.32,100.05v-.22c0-.66-.23-.98-.67-.98-.46,0-.71.42-.71,1.1v.09h1.38Z"/>
    <path class="cls-4" d="M135.95,97.16v1.22h.7v.64h-.7v2.57c0,.32.09.45.39.45.13,0,.23,0,.31-.02v.64c-.19.05-.42.07-.69.07-.52,0-.88-.11-.88-1.02v-2.69h-.59v-.64h.59v-1.22h.86Z"/>
    <path class="cls-4" d="M141.62,99.81h-.86c0-.51-.16-.9-.6-.9-.61,0-.75.58-.75,1.62,0,.98.13,1.62.74,1.62.58,0,.65-.59.65-1.04h.82c-.06,1-.38,1.68-1.47,1.68-1.3,0-1.6-1-1.6-2.26s.3-2.26,1.61-2.26c.98,0,1.46.61,1.46,1.54Z"/>
    <path class="cls-4" d="M145.05,99.32v2.46c0,.12.06.3.23.3.06,0,.1,0,.14-.02v.56c-.12.06-.26.1-.43.1-.45,0-.7-.22-.72-.57h-.02c-.24.43-.57.63-1.07.63-.72,0-1.12-.4-1.12-1.21,0-.95.42-1.19,1.14-1.39l.53-.14c.36-.1.5-.22.5-.55,0-.43-.17-.64-.59-.64-.52,0-.66.33-.66.81v.02h-.82v-.02c0-.98.46-1.4,1.51-1.4.71,0,1.37.26,1.37,1.06ZM143.46,102.15c.65,0,.78-.58.78-1.02v-.73c-.08.06-.22.14-.55.25l-.23.08c-.22.07-.53.2-.53.77,0,.4.21.65.54.65Z"/>
    <path class="cls-4" d="M149.07,100.59c0,1.45-.48,2.21-1.33,2.21-.46,0-.82-.22-.98-.62h-.02v1.91h-.86v-5.71h.82v.53h.02c.21-.43.54-.64.97-.64.94,0,1.38.78,1.38,2.32ZM147.44,102.11c.54,0,.72-.46.72-1.56,0-.95-.11-1.59-.73-1.59-.55,0-.73.5-.73,1.54s.15,1.62.74,1.62Z"/>
    <path class="cls-4" d="M150.59,96.91v.86h-.86v-.86h.86ZM150.59,98.38v4.3h-.86v-4.3h.86Z"/>
    <path class="cls-4" d="M152.51,97.16v1.22h.7v.64h-.7v2.57c0,.32.09.45.39.45.13,0,.23,0,.31-.02v.64c-.19.05-.42.07-.69.07-.52,0-.88-.11-.88-1.02v-2.69h-.59v-.64h.59v-1.22h.86Z"/>
    <path class="cls-4" d="M156.53,99.32v2.46c0,.12.06.3.23.3.06,0,.1,0,.14-.02v.56c-.12.06-.26.1-.43.1-.45,0-.7-.22-.72-.57h-.02c-.24.43-.57.63-1.07.63-.72,0-1.12-.4-1.12-1.21,0-.95.42-1.19,1.14-1.39l.53-.14c.36-.1.5-.22.5-.55,0-.43-.17-.64-.59-.64-.52,0-.66.33-.66.81v.02h-.82v-.02c0-.98.46-1.4,1.51-1.4.71,0,1.37.26,1.37,1.06ZM154.94,102.15c.65,0,.78-.58.78-1.02v-.73c-.08.06-.22.14-.55.25l-.23.08c-.22.07-.53.2-.53.77,0,.4.21.65.54.65Z"/>
    <path class="cls-4" d="M158.27,96.97v5.71h-.86v-5.71h.86Z"/>
    <path class="cls-4" d="M159.93,96.91v.86h-.86v-.86h.86ZM159.93,98.38v4.3h-.86v-4.3h.86Z"/>
    <path class="cls-4" d="M163.33,98.38v.71l-1.81,2.86h1.81v.73h-2.85v-.67l1.88-2.9h-1.77v-.73h2.74Z"/>
    <path class="cls-4" d="M166.75,99.32v2.46c0,.12.06.3.23.3.06,0,.1,0,.14-.02v.56c-.12.06-.26.1-.43.1-.45,0-.7-.22-.72-.57h-.02c-.24.43-.57.63-1.07.63-.72,0-1.12-.4-1.12-1.21,0-.95.42-1.19,1.14-1.39l.53-.14c.36-.1.5-.22.5-.55,0-.43-.17-.64-.59-.64-.52,0-.66.33-.66.81v.02h-.82v-.02c0-.98.46-1.4,1.51-1.4.71,0,1.37.26,1.37,1.06ZM165.16,102.15c.65,0,.78-.58.78-1.02v-.73c-.08.06-.22.14-.55.25l-.23.08c-.22.07-.53.2-.53.77,0,.4.21.65.54.65Z"/>
    <path class="cls-4" d="M168.66,97.16v1.22h.7v.64h-.7v2.57c0,.32.09.45.39.45.13,0,.23,0,.31-.02v.64c-.19.05-.42.07-.69.07-.52,0-.88-.11-.88-1.02v-2.69h-.59v-.64h.59v-1.22h.86Z"/>
    <path class="cls-4" d="M170.69,96.91v.86h-.86v-.86h.86ZM170.69,98.38v4.3h-.86v-4.3h.86Z"/>
    <path class="cls-4" d="M174.53,100.52c0,1.13-.28,2.27-1.61,2.27s-1.6-1.15-1.6-2.27.24-2.25,1.6-2.25c1.29,0,1.61.98,1.61,2.25ZM172.92,102.15c.64,0,.74-.54.74-1.62s-.14-1.63-.75-1.63-.73.73-.73,1.62c0,1.08.11,1.62.74,1.62Z"/>
    <path class="cls-4" d="M178.16,99.44v3.25h-.86v-2.96c0-.55-.14-.77-.59-.77-.42,0-.7.33-.7.83v2.89h-.86v-4.3h.82v.5h.02c.21-.38.62-.62,1.1-.62.73,0,1.07.37,1.07,1.17Z"/>
    <path class="cls-4" d="M179.93,101.63v1.06h-.91v-1.06h.91Z"/>
  </g>
  <g>
    <path class="cls-4" d="M97.46,65.69l1.1,3.71h.02v-3.71h1.25v5.71h-1.52l-1.18-3.93h-.02v3.93h-1.2v-5.71h1.54Z"/>
    <path class="cls-4" d="M103.82,68.24v2.27c0,.5.04.74.15.89h-1.25c-.05-.13-.06-.3-.07-.5h-.02c-.18.38-.58.61-1.02.61-.79,0-1.15-.45-1.15-1.31,0-.46.13-.73.33-.93.24-.23.55-.34.96-.44.26-.06.6-.14.7-.19.12-.07.17-.14.17-.4s-.12-.43-.41-.43c-.3,0-.46.14-.47.59h-1.15c0-1.19.74-1.44,1.68-1.44,1.05,0,1.55.33,1.55,1.28ZM102.09,70.62c.49,0,.52-.43.52-.58,0-.41,0-.74,0-.82-.11.1-.32.2-.43.25-.33.14-.47.19-.47.6,0,.36.14.55.38.55Z"/>
    <path class="cls-4" d="M107.7,68.19v.14h-1.15v-.07c0-.36-.12-.49-.42-.49s-.44.12-.44.4c0,.3.3.41.79.56.66.2,1.28.46,1.28,1.38s-.6,1.42-1.65,1.42c-1.15,0-1.65-.42-1.65-1.3v-.18h1.15c.02.5.18.69.49.69s.46-.18.46-.44c0-.43-.44-.5-.89-.66-.79-.29-1.18-.54-1.18-1.34,0-.85.58-1.3,1.65-1.3,1.02,0,1.57.43,1.57,1.22Z"/>
    <path class="cls-4" d="M111.74,65.69v5.71h-1.25v-.53h-.02c-.15.41-.46.64-.94.64-.91,0-1.34-.7-1.34-2.25,0-1.34.2-2.3,1.26-2.3.46,0,.78.2.97.58h.02v-1.85h1.3ZM110.47,69.26c0-.83-.05-1.35-.48-1.35-.47,0-.49.55-.49,1.3s.04,1.37.5,1.37c.38,0,.46-.44.46-1.31Z"/>
    <path class="cls-4" d="M115.67,68.24v2.27c0,.5.04.74.15.89h-1.25c-.05-.13-.06-.3-.07-.5h-.02c-.18.38-.58.61-1.02.61-.79,0-1.15-.45-1.15-1.31,0-.46.13-.73.33-.93.24-.23.55-.34.96-.44.26-.06.6-.14.7-.19.12-.07.17-.14.17-.4s-.12-.43-.41-.43c-.3,0-.46.14-.47.59h-1.15c0-1.19.74-1.44,1.68-1.44,1.05,0,1.55.33,1.55,1.28ZM113.94,70.62c.49,0,.52-.43.52-.58,0-.41,0-.74,0-.82-.11.1-.32.2-.43.25-.33.14-.47.19-.47.6,0,.36.14.55.38.55Z"/>
    <path class="cls-4" d="M118.63,67.6h.02v-.53h1.25v5.73h-1.3v-1.88h-.02c-.18.4-.52.58-.97.58-1.08,0-1.26-1.02-1.26-2.3,0-1.54.42-2.25,1.34-2.25.48,0,.79.24.94.64ZM118.15,70.57c.45,0,.47-.62.47-1.35,0-.86-.08-1.31-.46-1.31-.47,0-.5.63-.5,1.36,0,.82.03,1.3.5,1.3Z"/>
    <path class="cls-4" d="M122.94,68.55v1.09h-2.41v-1.09h2.41Z"/>
    <path class="cls-4" d="M126.14,65.74v5.66h-1.34v-3.93h-1.09v-.85h.15c.78,0,1.22-.29,1.34-.89h.94Z"/>
    <path class="cls-4" d="M131.32,68.62c0,1.52-.13,2.89-1.86,2.89s-1.86-1.02-1.86-2.89c0-1.56.15-2.89,1.86-2.89s1.86,1.05,1.86,2.88ZM129.98,68.44c0-1.58-.12-1.85-.53-1.85s-.51.4-.51,1.88v.28c0,1.55.09,1.92.52,1.92.46,0,.52-.46.52-2.03v-.19Z"/>
    <path class="cls-4" d="M135.48,68.62c0,1.52-.13,2.89-1.86,2.89s-1.86-1.02-1.86-2.89c0-1.56.15-2.89,1.86-2.89s1.86,1.05,1.86,2.88ZM134.14,68.44c0-1.58-.12-1.85-.53-1.85s-.51.4-.51,1.88v.28c0,1.55.09,1.92.52,1.92.46,0,.52-.46.52-2.03v-.19Z"/>
    <path class="cls-4" d="M139.56,65.69v5.71h-1.34v-5.71h1.34Z"/>
    <path class="cls-4" d="M143.79,68.17v3.23h-1.3v-2.94c0-.34-.14-.5-.38-.5-.28,0-.46.23-.46.61v2.84h-1.3v-4.33h1.25v.51h.02c.19-.4.58-.62,1.04-.62.77,0,1.13.4,1.13,1.21Z"/>
    <path class="cls-4" d="M147.94,65.69v5.71h-1.25v-.53h-.02c-.15.41-.46.64-.94.64-.91,0-1.34-.7-1.34-2.25,0-1.34.2-2.3,1.26-2.3.46,0,.78.2.97.58h.02v-1.85h1.3ZM146.67,69.26c0-.83-.05-1.35-.48-1.35-.47,0-.49.55-.49,1.3s.04,1.37.5,1.37c.38,0,.46-.44.46-1.31Z"/>
    <path class="cls-4" d="M152,69.3v.15h-2.18v.29c0,.74.14.98.47.98s.44-.22.47-.79h1.2c-.02,1.06-.58,1.59-1.68,1.59-1.6,0-1.76-1.09-1.76-2.42s.4-2.13,1.76-2.13c1.48,0,1.72.86,1.72,2.33ZM150.75,68.7v-.04c0-.59-.1-.9-.44-.9-.37,0-.5.26-.5.88v.06h.94Z"/>
    <path class="cls-4" d="M153.55,67.08l.51,1.29.53-1.29h1.3l-1.08,2.09,1.16,2.24h-1.3l-.58-1.4-.61,1.4h-1.3l1.16-2.24-1.09-2.09h1.3Z"/>
  </g>
</svg>